<svg xmlns="http://www.w3.org/2000/svg" xmlns:xlink="http://www.w3.org/1999/xlink" id="Layer_1" data-name="Layer 1" viewBox="0 0 424.399 306.486"><defs><style>.cls-1{fill:none}.cls-2{isolation:isolate}.cls-3{fill:#242960}.cls-4{fill:#df0a6b}.cls-5{fill:#de156c}.cls-6{clip-path:url(#clip-path)}.cls-7{fill:#f12fa5}.cls-8{fill:#f12fa4}.cls-9{fill:#f02ea3}.cls-10{fill:#f02ea2}.cls-11{fill:#f02da1}.cls-12{fill:#ef2da0}.cls-13{fill:#ef2c9f}.cls-14{fill:#ef2c9e}.cls-15{fill:#ee2b9d}.cls-16{fill:#ee2b9c}.cls-17{fill:#ee2a9b}.cls-18{fill:#ed2a9a}.cls-19{fill:#ed2999}.cls-20{fill:#ed2998}.cls-21{fill:#ec2997}.cls-22{fill:#ec2896}.cls-23{fill:#ec2895}.cls-24{fill:#eb2794}.cls-25{fill:#eb2793}.cls-26{fill:#eb2692}.cls-27{fill:#ea2691}.cls-28{fill:#ea2590}.cls-29{fill:#ea258f}.cls-30{fill:#e9248e}.cls-31{fill:#e9248d}.cls-32{fill:#e9238c}.cls-33{fill:#e8238b}.cls-34{fill:#e8228a}.cls-35{fill:#e82289}.cls-36{fill:#e72287}.cls-37{fill:#e72186}.cls-38{fill:#e62185}.cls-39{fill:#e62084}.cls-40{fill:#e62083}.cls-41{fill:#e51f82}.cls-42{fill:#e51f81}.cls-43{fill:#e51e80}.cls-44{fill:#e41e7f}.cls-45{fill:#e41d7e}.cls-46{fill:#e41d7d}.cls-47{fill:#e31c7c}.cls-48{fill:#e31c7b}.cls-49{fill:#e31c7a}.cls-50{fill:#e21b79}.cls-51{fill:#e21b78}.cls-52{fill:#e21a77}.cls-53{fill:#e11a76}.cls-54{fill:#e11975}.cls-55{fill:#e11974}.cls-56{fill:#e01873}.cls-57{fill:#e01872}.cls-58{fill:#e01771}.cls-59{fill:#df1770}.cls-60{fill:#df166f}.cls-61{fill:#df166e}.cls-62{fill:#de156d}.cls-63{fill:#47529d}.cls-64{clip-path:url(#clip-path-2)}.cls-65{fill:#7e8bcc}.cls-66{fill:#7d8acb}.cls-67{fill:#7c89ca}.cls-68{fill:#7b88c9}.cls-69{fill:#7a87c9}.cls-70{fill:#7986c8}.cls-71{fill:#7885c7}.cls-72{fill:#7784c6}.cls-73{fill:#7683c5}.cls-74{fill:#7582c4}.cls-75{fill:#7481c4}.cls-76{fill:#7380c3}.cls-77{fill:#727fc2}.cls-78{fill:#717ec1}.cls-79{fill:#707dc0}.cls-80{fill:#6f7cbf}.cls-81{fill:#6e7bbf}.cls-82{fill:#6d7abe}.cls-83{fill:#6c79bd}.cls-84{fill:#6b78bc}.cls-85{fill:#6a77bb}.cls-86{fill:#6976ba}.cls-87{fill:#6875ba}.cls-88{fill:#6774b9}.cls-89{fill:#6673b8}.cls-90{fill:#6572b7}.cls-91{fill:#6471b6}.cls-92{fill:#6370b5}.cls-93{fill:#636fb5}.cls-94{fill:#626db4}.cls-95{fill:#616cb3}.cls-96{fill:#606bb2}.cls-97{fill:#5f6ab1}.cls-98{fill:#5e69b0}.cls-99{fill:#5d68af}.cls-100{fill:#5c67af}.cls-101{fill:#5b66ae}.cls-102{fill:#5a65ad}.cls-103{fill:#5964ac}.cls-104{fill:#5863ab}.cls-105{fill:#5762aa}.cls-106{fill:#5661aa}.cls-107{fill:#5560a9}.cls-108{fill:#545fa8}.cls-109{fill:#535ea7}.cls-110{fill:#525da6}.cls-111{fill:#515ca5}.cls-112{fill:#505ba5}.cls-113{fill:#4f5aa4}.cls-114{fill:#4e59a3}.cls-115{fill:#4d58a2}.cls-116{fill:#4c57a1}.cls-117{fill:#4b56a0}.cls-118{fill:#4a55a0}.cls-119{fill:#49549f}.cls-120{fill:#48539e}.cls-121{fill:#252960}.cls-122{clip-path:url(#clip-path-3)}.cls-123{fill:#4b5399}.cls-124{fill:#4a5298}.cls-125{fill:#4a5297}.cls-126{fill:#495196}.cls-127{fill:#485095}.cls-128{fill:#484f94}.cls-129{fill:#474f93}.cls-130{fill:#464e92}.cls-131{fill:#464d91}.cls-132{fill:#454c90}.cls-133{fill:#444c8f}.cls-134{fill:#444b8e}.cls-135{fill:#434a8d}.cls-136{fill:#42498c}.cls-137{fill:#42498b}.cls-138{fill:#41488a}.cls-139{fill:#404789}.cls-140{fill:#3f4688}.cls-141{fill:#3f4687}.cls-142{fill:#3e4586}.cls-143{fill:#3d4485}.cls-144{fill:#3d4384}.cls-145{fill:#3c4383}.cls-146{fill:#3b4282}.cls-147{fill:#3b4181}.cls-148{fill:#3a4080}.cls-149{fill:#39407f}.cls-150{fill:#393f7e}.cls-151{fill:#383e7d}.cls-152{fill:#373d7b}.cls-153{fill:#373d7a}.cls-154{fill:#363c79}.cls-155{fill:#353b78}.cls-156{fill:#353a77}.cls-157{fill:#343a76}.cls-158{fill:#333975}.cls-159{fill:#333874}.cls-160{fill:#323773}.cls-161{fill:#313772}.cls-162{fill:#313671}.cls-163{fill:#303570}.cls-164{fill:#2f346f}.cls-165{fill:#2f346e}.cls-166{fill:#2e336d}.cls-167{fill:#2d326c}.cls-168{fill:#2c316b}.cls-169{fill:#2c316a}.cls-170{fill:#2b3069}.cls-171{fill:#2a2f68}.cls-172{fill:#2a2e67}.cls-173{fill:#292e66}.cls-174{fill:#282d65}.cls-175{fill:#282c64}.cls-176{fill:#272b63}.cls-177{fill:#262b62}.cls-178{fill:#262a61}</style><clipPath id="clip-path"><path d="M268.44146,128.213v45.36935a7.16578,7.16578,0,0,0,7.14478,7.14478,8.13059,8.13059,0,0,0,3.57239-.8931l39.29629-22.68468a7.20438,7.20438,0,0,0,3.57239-6.25168V105.52831a7.16578,7.16578,0,0,0-7.14478-7.14478,8.13058,8.13058,0,0,0-3.57239.8931l-39.29629,22.86329A7.134,7.134,0,0,0,268.44146,128.213Z" class="cls-1"/></clipPath><clipPath id="clip-path-2"><path d="M254.1519,6.57311,214.85562,29.25779a7.20438,7.20438,0,0,0-3.57239,6.25168V80.87882A7.16578,7.16578,0,0,0,218.428,88.0236a8.13059,8.13059,0,0,0,3.57239-.8931l39.29629-22.68468a7.20438,7.20438,0,0,0,3.57239-6.25168v-45.548a7.16578,7.16578,0,0,0-7.14478-7.14478A6.44052,6.44052,0,0,0,254.1519,6.57311Z" class="cls-1"/></clipPath><clipPath id="clip-path-3"><path d="M154.125,128.213v45.36935a7.16578,7.16578,0,0,0,7.14478,7.14478,8.13059,8.13059,0,0,0,3.57239-.8931l39.29629-22.68468a7.20438,7.20438,0,0,0,3.57239-6.25168V105.52831a7.16578,7.16578,0,0,0-7.14478-7.14478,8.13058,8.13058,0,0,0-3.57239.8931l-39.29629,22.8633A7.134,7.134,0,0,0,154.125,128.213Z" class="cls-1"/></clipPath></defs><title>buildpacks-stacked-color</title><g class="cls-2"><path d="M7.551,241.17344H22.4836a34.17,34.17,0,0,1,6.68018.60742,16.94187,16.94187,0,0,1,5.28711,1.92871,9.42167,9.42167,0,0,1,3.501,3.53711,10.90317,10.90317,0,0,1,1.25049,5.42969,10.74828,10.74828,0,0,1-1.96484,6.21582,10.10951,10.10951,0,0,1-6.03711,3.92969v.28613a13.67062,13.67062,0,0,1,7.752,3.60742,10.24613,10.24613,0,0,1,2.6792,7.4668,12.84721,12.84721,0,0,1-1.35742,6.07324,12.23567,12.23567,0,0,1-3.751,4.28613,16.53794,16.53794,0,0,1-5.68018,2.53711,29.41365,29.41365,0,0,1-7.145.82129H7.551Zm14.21826,19.3623q4.92993,0,7.10889-1.78613a6.18758,6.18758,0,0,0,2.1792-5.07324,5.05981,5.05981,0,0,0-2.28613-4.64355q-2.28809-1.42969-6.85937-1.42969H15.83907v12.93262ZM22.841,281.46934q5.1438,0,7.93066-1.92871A6.71725,6.71725,0,0,0,33.55782,273.61a5.96793,5.96793,0,0,0-2.71484-5.39355q-2.71582-1.75049-8.002-1.751h-7.002v15.00391Z" class="cls-3"/><path d="M49.13253,252.81895h8.21631v20.93457q0,4.35791,1.28613,6.14453a4.75459,4.75459,0,0,0,4.144,1.78613,7.21543,7.21543,0,0,0,4.03711-1.14355,16.49588,16.49588,0,0,0,3.751-3.71484V252.81895h8.21631V287.9H72.0671l-.64258-5.14453h-.21436a20.58768,20.58768,0,0,1-4.96582,4.3584,11.85256,11.85256,0,0,1-6.32324,1.64355q-5.64478,0-8.21631-3.6084-2.57227-3.60645-2.57227-10.32422Z" class="cls-3"/><path d="M93.35909,246.67441a5.23915,5.23915,0,0,1-3.644-1.28613,4.2996,4.2996,0,0,1-1.42871-3.35742,4.41689,4.41689,0,0,1,1.42871-3.39453,5.685,5.685,0,0,1,7.2876,0,4.42233,4.42233,0,0,1,1.4292,3.39453,4.30482,4.30482,0,0,1-1.4292,3.35742A5.2421,5.2421,0,0,1,93.35909,246.67441Zm-4.144,6.14453h8.21631V287.9H89.215Z" class="cls-3"/><path d="M107.9338,237.45762h8.21631v41.86816a3.05441,3.05441,0,0,0,.57178,2.1084,1.66353,1.66353,0,0,0,1.21436.60742h.53613a2.98022,2.98022,0,0,0,.75-.14355l1.07178,6.14453a11.10521,11.10521,0,0,1-4.3584.71484q-4.43042,0-6.21582-2.64355a12.72771,12.72771,0,0,1-1.78613-7.21582Z" class="cls-3"/><path d="M125.15206,270.39512a22.40067,22.40067,0,0,1,1.25049-7.71582,17.959,17.959,0,0,1,3.32227-5.78809,14.84541,14.84541,0,0,1,4.751-3.64355,12.656,12.656,0,0,1,5.5376-1.28613,11.28021,11.28021,0,0,1,5.07275,1.03613,20.39783,20.39783,0,0,1,4.144,2.82227l-.28613-5.64453V237.45762h8.2168V287.9h-6.7876l-.57178-3.78711h-.28564A18.554,18.554,0,0,1,145.01436,287.4a11.48085,11.48085,0,0,1-5.42969,1.35742,12.82806,12.82806,0,0,1-10.53857-4.82324Q125.15108,279.11191,125.15206,270.39512Zm8.50244-.07129q0,5.71729,2.03613,8.68066a6.707,6.707,0,0,0,5.89453,2.96582q3.928,0,7.35889-3.92969v-16.3623a11.64984,11.64984,0,0,0-3.60791-2.28613,10.19486,10.19486,0,0,0-3.53662-.64258,7.1179,7.1179,0,0,0-5.7876,3.001Q133.65426,264.75059,133.6545,270.32383Z" class="cls-3"/><path d="M175.80831,290.7584v11.00293H167.592V252.81895h6.7876l.57129,3.71582h.28613a25.08217,25.08217,0,0,1,4.92969-3.21582,12.47634,12.47634,0,0,1,5.64453-1.35742,13.01619,13.01619,0,0,1,5.82275,1.251,12.093,12.093,0,0,1,4.32275,3.60742,16.84882,16.84882,0,0,1,2.71484,5.64453,27.073,27.073,0,0,1,.92871,7.35938,24.06133,24.06133,0,0,1-1.25,8.03809,18.24444,18.24444,0,0,1-3.32227,5.92969,14.512,14.512,0,0,1-4.78711,3.67969,13.04072,13.04072,0,0,1-5.64453,1.28613,11.3377,11.3377,0,0,1-4.57275-1,17.47132,17.47132,0,0,1-4.42969-2.8584Zm0-11.71777a12.27306,12.27306,0,0,0,3.71533,2.28613,9.93122,9.93122,0,0,0,3.35791.64355,7.15389,7.15389,0,0,0,5.85889-3.03711q2.35767-3.03516,2.35791-9.03809,0-5.28662-1.78613-8.2168a6.26285,6.26285,0,0,0-5.7876-2.92871q-3.71558,0-7.71631,3.92969Z" class="cls-3"/><path d="M205.531,278.46934a9.71648,9.71648,0,0,1,4.92969-8.7168q4.9292-3.07178,15.71777-4.28711a9.513,9.513,0,0,0-.35547-2.60742,6.509,6.509,0,0,0-1.10742-2.21582,5.065,5.065,0,0,0-1.92969-1.5,7.17971,7.17971,0,0,0-2.96484-.53613,13.465,13.465,0,0,0-5.10937,1.001,30.87839,30.87839,0,0,0-4.751,2.42871l-3.001-5.501a35.55061,35.55061,0,0,1,6.53711-3.21582,22.05485,22.05485,0,0,1,7.82422-1.35742q6.64453,0,9.85938,3.89453,3.2168,3.895,3.21484,11.25293V287.9h-6.71484l-.64453-3.8584H226.823a25.775,25.775,0,0,1-5.03711,3.3584,12.71558,12.71558,0,0,1-5.82422,1.35742,10.33566,10.33566,0,0,1-7.53711-2.82227A9.95309,9.95309,0,0,1,205.531,278.46934Zm8.002-.64355a4.05228,4.05228,0,0,0,1.39355,3.42969,5.74531,5.74531,0,0,0,3.60742,1.07129,7.89335,7.89335,0,0,0,3.92969-1,18.45869,18.45869,0,0,0,3.71484-2.85742V270.61a37.46332,37.46332,0,0,0-6,1.14258A16.56956,16.56956,0,0,0,216.2839,273.36a5.79151,5.79151,0,0,0-2.10742,2.03711A4.86622,4.86622,0,0,0,213.53292,277.82578Z" class="cls-3"/><path d="M242.112,270.39512a20.08874,20.08874,0,0,1,1.42871-7.78809,17.11187,17.11187,0,0,1,3.8584-5.78711,16.79087,16.79087,0,0,1,5.6084-3.60742,18.097,18.097,0,0,1,6.68066-1.251,14.04764,14.04764,0,0,1,5.96582,1.17871,15.80425,15.80425,0,0,1,4.32227,2.89453l-3.92969,5.21484a13.2674,13.2674,0,0,0-2.85742-1.89258,7.0814,7.0814,0,0,0-3.07227-.67871,8.57983,8.57983,0,0,0-6.93066,3.17871,15.08018,15.08018,0,0,0-.03613,17.00488,8.32687,8.32687,0,0,0,6.752,3.17969,8.87278,8.87278,0,0,0,3.96582-.89355,15.5738,15.5738,0,0,0,3.251-2.10742l3.42871,5.21582a17.804,17.804,0,0,1-5.501,3.35742,16.76554,16.76554,0,0,1-6.002,1.14355,18.19524,18.19524,0,0,1-6.68066-1.21484,15.04211,15.04211,0,0,1-5.39355-3.57227,16.5068,16.5068,0,0,1-3.57227-5.78711A22.06594,22.06594,0,0,1,242.112,270.39512Z" class="cls-3"/><path d="M277.406,237.45762h8.07324v31.50879h.21484L298.697,252.81895h9.00293L295.696,267.109,308.91476,287.9h-8.93164l-9.002-15.21875-5.502,6.28809V287.9H277.406Z" class="cls-3"/><path d="M315.05831,278.61191a22.22453,22.22453,0,0,0,4.67969,2.89355,12.20339,12.20339,0,0,0,5.03711,1.03613,6.32322,6.32322,0,0,0,4.21484-1.17871,3.83974,3.83974,0,0,0,1.35742-3.03711,2.98963,2.98963,0,0,0-.64258-1.89355,6.18591,6.18591,0,0,0-1.71484-1.46387,16.5455,16.5455,0,0,0-2.42871-1.17969q-1.35937-.53467-2.71582-1.10742-1.71387-.64307-3.501-1.5a14.03826,14.03826,0,0,1-3.17871-2.07227,10.451,10.451,0,0,1-2.28711-2.82227,7.74447,7.74447,0,0,1-.89258-3.82227,9.49934,9.49934,0,0,1,3.42969-7.57324q3.4292-2.92822,9.35938-2.92969a16.18833,16.18833,0,0,1,6.57324,1.28613,24.50837,24.50837,0,0,1,5.07324,2.92969l-3.78711,5.001a19.676,19.676,0,0,0-3.751-2.17871,9.87824,9.87824,0,0,0-3.96582-.82227,5.76207,5.76207,0,0,0-3.89355,1.10742,3.52786,3.52786,0,0,0-1.25,2.751,2.80105,2.80105,0,0,0,.60742,1.82227,5.58589,5.58589,0,0,0,1.60742,1.32129,16.11169,16.11169,0,0,0,2.32227,1.07227q1.31982.501,2.75,1,1.78564.64307,3.57227,1.46484a14.6891,14.6891,0,0,1,3.251,2.03613,9.3354,9.3354,0,0,1,2.3584,2.96484,9.11177,9.11177,0,0,1,.89258,4.17969,10.15557,10.15557,0,0,1-.89258,4.251,9.81792,9.81792,0,0,1-2.6084,3.42969A12.6893,12.6893,0,0,1,330.34737,287.9a18.49779,18.49779,0,0,1-5.8584.85742,19.44983,19.44983,0,0,1-7.18066-1.39355,23.21978,23.21978,0,0,1-6.1084-3.46484Z" class="cls-3"/></g><g class="cls-2"><path d="M347.85616,283.18418a5.48969,5.48969,0,0,1,1.53613-4.001,5.13119,5.13119,0,0,1,3.82227-1.57129,5.016,5.016,0,0,1,3.78711,1.57129,6.08594,6.08594,0,0,1,0,8.002,5.01329,5.01329,0,0,1-3.78711,1.57227,5.12837,5.12837,0,0,1-3.82227-1.57227A5.48342,5.48342,0,0,1,347.85616,283.18418Z" class="cls-4"/><path d="M372.362,246.67441a5.23875,5.23875,0,0,1-3.64355-1.28613,4.30121,4.30121,0,0,1-1.42871-3.35742,4.41857,4.41857,0,0,1,1.42871-3.39453,5.68568,5.68568,0,0,1,7.28809,0,4.42193,4.42193,0,0,1,1.42871,3.39453,4.30443,4.30443,0,0,1-1.42871,3.35742A5.2446,5.2446,0,0,1,372.362,246.67441Zm-4.14355,6.14453h8.2168V287.9h-8.2168Z" class="cls-4"/><path d="M384.65108,270.39512a21.02744,21.02744,0,0,1,1.35742-7.78809,17.0735,17.0735,0,0,1,3.67969-5.78711,16.187,16.187,0,0,1,11.61035-4.8584,16.4632,16.4632,0,0,1,6.32227,1.251,15.64867,15.64867,0,0,1,5.32324,3.60742,17.86524,17.86524,0,0,1,3.67969,5.78711,22.45921,22.45921,0,0,1,0,15.57617,17.86524,17.86524,0,0,1-3.67969,5.78711,15.20226,15.20226,0,0,1-5.32324,3.57227,16.87741,16.87741,0,0,1-6.32227,1.21484,16.60809,16.60809,0,0,1-6.28809-1.21484,15.62715,15.62715,0,0,1-5.32227-3.57227,17.0735,17.0735,0,0,1-3.67969-5.78711A21.01655,21.01655,0,0,1,384.65108,270.39512Zm8.43066,0a14.72249,14.72249,0,0,0,2.17871,8.4668,6.92451,6.92451,0,0,0,6.03809,3.17969,7.011,7.011,0,0,0,6.07227-3.17969,17.42695,17.42695,0,0,0,0-17.00488,7.01454,7.01454,0,0,0-6.07227-3.17871,6.928,6.928,0,0,0-6.03809,3.17871A14.86694,14.86694,0,0,0,393.08175,270.39512Z" class="cls-4"/></g><path d="M264.86907,122.13992,225.57279,99.45525a7.21683,7.21683,0,0,0-9.82407,2.50067,8.13059,8.13059,0,0,0-.8931,3.57239v45.36935a7.67,7.67,0,0,0,3.57239,6.25168l46.44107,26.79292a7.27342,7.27342,0,0,0,7.14478,0l46.44107-26.79292a7.20438,7.20438,0,0,0,3.57239-6.25168V105.52831a7.16578,7.16578,0,0,0-7.14478-7.14478,8.13058,8.13058,0,0,0-3.57239.8931l-39.29629,22.86329A7.27343,7.27343,0,0,1,264.86907,122.13992Z" class="cls-5"/><g class="cls-6"><rect width="53.586" x="268.441" y="98.384" class="cls-7"/><rect width="53.586" height="1.445" x="268.441" y="98.384" class="cls-7"/><rect width="53.586" height="1.445" x="268.441" y="99.828" class="cls-8"/><rect width="53.586" height="1.445" x="268.441" y="101.273" class="cls-9"/><rect width="53.586" height="1.445" x="268.441" y="102.717" class="cls-10"/><rect width="53.586" height="1.445" x="268.441" y="104.162" class="cls-11"/><rect width="53.586" height="1.445" x="268.441" y="105.607" class="cls-12"/><rect width="53.586" height="1.445" x="268.441" y="107.051" class="cls-13"/><rect width="53.586" height="1.445" x="268.441" y="108.496" class="cls-14"/><rect width="53.586" height="1.445" x="268.441" y="109.941" class="cls-15"/><rect width="53.586" height="1.445" x="268.441" y="111.385" class="cls-16"/><rect width="53.586" height="1.445" x="268.441" y="112.83" class="cls-17"/><rect width="53.586" height="1.445" x="268.441" y="114.274" class="cls-18"/><rect width="53.586" height="1.445" x="268.441" y="115.719" class="cls-19"/><rect width="53.586" height="1.445" x="268.441" y="117.164" class="cls-20"/><rect width="53.586" height="1.445" x="268.441" y="118.608" class="cls-21"/><rect width="53.586" height="1.445" x="268.441" y="120.053" class="cls-22"/><rect width="53.586" height="1.445" x="268.441" y="121.498" class="cls-23"/><rect width="53.586" height="1.445" x="268.441" y="122.942" class="cls-24"/><rect width="53.586" height="1.445" x="268.441" y="124.387" class="cls-25"/><rect width="53.586" height="1.445" x="268.441" y="125.831" class="cls-26"/><rect width="53.586" height="1.445" x="268.441" y="127.276" class="cls-27"/><rect width="53.586" height="1.445" x="268.441" y="128.721" class="cls-28"/><rect width="53.586" height="1.445" x="268.441" y="130.165" class="cls-29"/><rect width="53.586" height="1.445" x="268.441" y="131.61" class="cls-30"/><rect width="53.586" height="1.445" x="268.441" y="133.055" class="cls-31"/><rect width="53.586" height="1.445" x="268.441" y="134.499" class="cls-32"/><rect width="53.586" height="1.445" x="268.441" y="135.944" class="cls-33"/><rect width="53.586" height="1.445" x="268.441" y="137.388" class="cls-34"/><rect width="53.586" height="1.445" x="268.441" y="138.833" class="cls-35"/><rect width="53.586" height="1.445" x="268.441" y="140.278" class="cls-36"/><rect width="53.586" height="1.445" x="268.441" y="141.722" class="cls-37"/><rect width="53.586" height="1.445" x="268.441" y="143.167" class="cls-38"/><rect width="53.586" height="1.445" x="268.441" y="144.612" class="cls-39"/><rect width="53.586" height="1.445" x="268.441" y="146.056" class="cls-40"/><rect width="53.586" height="1.445" x="268.441" y="147.501" class="cls-41"/><rect width="53.586" height="1.445" x="268.441" y="148.945" class="cls-42"/><rect width="53.586" height="1.445" x="268.441" y="150.39" class="cls-43"/><rect width="53.586" height="1.445" x="268.441" y="151.835" class="cls-44"/><rect width="53.586" height="1.445" x="268.441" y="153.279" class="cls-45"/><rect width="53.586" height="1.445" x="268.441" y="154.724" class="cls-46"/><rect width="53.586" height="1.445" x="268.441" y="156.168" class="cls-47"/><rect width="53.586" height="1.445" x="268.441" y="157.613" class="cls-48"/><rect width="53.586" height="1.445" x="268.441" y="159.058" class="cls-49"/><rect width="53.586" height="1.445" x="268.441" y="160.502" class="cls-50"/><rect width="53.586" height="1.445" x="268.441" y="161.947" class="cls-51"/><rect width="53.586" height="1.445" x="268.441" y="163.392" class="cls-52"/><rect width="53.586" height="1.445" x="268.441" y="164.836" class="cls-53"/><rect width="53.586" height="1.445" x="268.441" y="166.281" class="cls-54"/><rect width="53.586" height="1.445" x="268.441" y="167.726" class="cls-55"/><rect width="53.586" height="1.445" x="268.441" y="169.17" class="cls-56"/><rect width="53.586" height="1.445" x="268.441" y="170.615" class="cls-57"/><rect width="53.586" height="1.445" x="268.441" y="172.059" class="cls-58"/><rect width="53.586" height="1.445" x="268.441" y="173.504" class="cls-59"/><rect width="53.586" height="1.445" x="268.441" y="174.949" class="cls-60"/><rect width="53.586" height="1.445" x="268.441" y="176.393" class="cls-61"/><rect width="53.586" height="1.445" x="268.441" y="177.838" class="cls-62"/><rect width="53.586" height="1.445" x="268.441" y="179.282" class="cls-5"/></g><path d="M254.1519,6.57311,214.85562,29.25779a7.27342,7.27342,0,0,1-7.14478,0L168.41455,6.57311a7.21683,7.21683,0,0,0-9.82407,2.50067,8.13059,8.13059,0,0,0-.8931,3.57239V58.01552a7.67,7.67,0,0,0,3.57239,6.25168l46.44107,26.79292a7.27342,7.27342,0,0,0,7.14478,0l46.44107-26.79292a7.20438,7.20438,0,0,0,3.57239-6.25168V12.64617a7.16578,7.16578,0,0,0-7.14478-7.14478A6.44052,6.44052,0,0,0,254.1519,6.57311Z" class="cls-63"/><g class="cls-64"><rect width="53.586" x="211.283" y="5.501" class="cls-65"/><rect width="53.586" height="1.446" x="211.283" y="5.501" class="cls-65"/><rect width="53.586" height="1.446" x="211.283" y="6.947" class="cls-66"/><rect width="53.586" height="1.446" x="211.283" y="8.393" class="cls-67"/><rect width="53.586" height="1.446" x="211.283" y="9.839" class="cls-68"/><rect width="53.586" height="1.446" x="211.283" y="11.285" class="cls-69"/><rect width="53.586" height="1.446" x="211.283" y="12.731" class="cls-70"/><rect width="53.586" height="1.446" x="211.283" y="14.176" class="cls-71"/><rect width="53.586" height="1.446" x="211.283" y="15.622" class="cls-72"/><rect width="53.586" height="1.446" x="211.283" y="17.068" class="cls-73"/><rect width="53.586" height="1.446" x="211.283" y="18.514" class="cls-74"/><rect width="53.586" height="1.446" x="211.283" y="19.96" class="cls-75"/><rect width="53.586" height="1.446" x="211.283" y="21.406" class="cls-76"/><rect width="53.586" height="1.446" x="211.283" y="22.851" class="cls-77"/><rect width="53.586" height="1.446" x="211.283" y="24.297" class="cls-78"/><rect width="53.586" height="1.446" x="211.283" y="25.743" class="cls-79"/><rect width="53.586" height="1.446" x="211.283" y="27.189" class="cls-80"/><rect width="53.586" height="1.446" x="211.283" y="28.635" class="cls-81"/><rect width="53.586" height="1.446" x="211.283" y="30.081" class="cls-82"/><rect width="53.586" height="1.446" x="211.283" y="31.526" class="cls-83"/><rect width="53.586" height="1.446" x="211.283" y="32.972" class="cls-84"/><rect width="53.586" height="1.446" x="211.283" y="34.418" class="cls-85"/><rect width="53.586" height="1.446" x="211.283" y="35.864" class="cls-86"/><rect width="53.586" height="1.446" x="211.283" y="37.31" class="cls-87"/><rect width="53.586" height="1.446" x="211.283" y="38.756" class="cls-88"/><rect width="53.586" height="1.446" x="211.283" y="40.201" class="cls-89"/><rect width="53.586" height="1.446" x="211.283" y="41.647" class="cls-90"/><rect width="53.586" height="1.446" x="211.283" y="43.093" class="cls-91"/><rect width="53.586" height="1.446" x="211.283" y="44.539" class="cls-92"/><rect width="53.586" height="1.446" x="211.283" y="45.985" class="cls-93"/><rect width="53.586" height="1.446" x="211.283" y="47.431" class="cls-94"/><rect width="53.586" height="1.446" x="211.283" y="48.876" class="cls-95"/><rect width="53.586" height="1.446" x="211.283" y="50.322" class="cls-96"/><rect width="53.586" height="1.446" x="211.283" y="51.768" class="cls-97"/><rect width="53.586" height="1.446" x="211.283" y="53.214" class="cls-98"/><rect width="53.586" height="1.446" x="211.283" y="54.66" class="cls-99"/><rect width="53.586" height="1.446" x="211.283" y="56.106" class="cls-100"/><rect width="53.586" height="1.446" x="211.283" y="57.551" class="cls-101"/><rect width="53.586" height="1.446" x="211.283" y="58.997" class="cls-102"/><rect width="53.586" height="1.446" x="211.283" y="60.443" class="cls-103"/><rect width="53.586" height="1.446" x="211.283" y="61.889" class="cls-104"/><rect width="53.586" height="1.446" x="211.283" y="63.335" class="cls-105"/><rect width="53.586" height="1.446" x="211.283" y="64.781" class="cls-106"/><rect width="53.586" height="1.446" x="211.283" y="66.226" class="cls-107"/><rect width="53.586" height="1.446" x="211.283" y="67.672" class="cls-108"/><rect width="53.586" height="1.446" x="211.283" y="69.118" class="cls-109"/><rect width="53.586" height="1.446" x="211.283" y="70.564" class="cls-110"/><rect width="53.586" height="1.446" x="211.283" y="72.01" class="cls-111"/><rect width="53.586" height="1.446" x="211.283" y="73.456" class="cls-112"/><rect width="53.586" height="1.446" x="211.283" y="74.901" class="cls-113"/><rect width="53.586" height="1.446" x="211.283" y="76.347" class="cls-114"/><rect width="53.586" height="1.446" x="211.283" y="77.793" class="cls-115"/><rect width="53.586" height="1.446" x="211.283" y="79.239" class="cls-116"/><rect width="53.586" height="1.446" x="211.283" y="80.685" class="cls-117"/><rect width="53.586" height="1.446" x="211.283" y="82.131" class="cls-118"/><rect width="53.586" height="1.446" x="211.283" y="83.576" class="cls-119"/><rect width="53.586" height="1.446" x="211.283" y="85.022" class="cls-120"/><rect width="53.586" height="1.446" x="211.283" y="86.468" class="cls-63"/><rect width="53.586" height=".11" x="211.283" y="87.914" class="cls-63"/></g><path d="M150.5526,122.13992,111.25631,99.45525a7.21683,7.21683,0,0,0-9.82407,2.50067,8.13059,8.13059,0,0,0-.8931,3.57239v45.36935a7.67,7.67,0,0,0,3.57239,6.25168l46.44107,26.79292a7.27342,7.27342,0,0,0,7.14478,0l46.44107-26.79292a7.20438,7.20438,0,0,0,3.57239-6.25168V105.52831a7.16578,7.16578,0,0,0-7.14478-7.14478,8.13058,8.13058,0,0,0-3.57239.8931l-39.29629,22.8633A7.27344,7.27344,0,0,1,150.5526,122.13992Z" class="cls-121"/><g class="cls-122"><rect width="53.586" x="154.125" y="98.384" class="cls-123"/><rect width="53.586" height="1.445" x="154.125" y="98.384" class="cls-123"/><rect width="53.586" height="1.445" x="154.125" y="99.828" class="cls-124"/><rect width="53.586" height="1.445" x="154.125" y="101.273" class="cls-125"/><rect width="53.586" height="1.445" x="154.125" y="102.717" class="cls-126"/><rect width="53.586" height="1.445" x="154.125" y="104.162" class="cls-127"/><rect width="53.586" height="1.445" x="154.125" y="105.607" class="cls-128"/><rect width="53.586" height="1.445" x="154.125" y="107.051" class="cls-129"/><rect width="53.586" height="1.445" x="154.125" y="108.496" class="cls-130"/><rect width="53.586" height="1.445" x="154.125" y="109.941" class="cls-131"/><rect width="53.586" height="1.445" x="154.125" y="111.385" class="cls-132"/><rect width="53.586" height="1.445" x="154.125" y="112.83" class="cls-133"/><rect width="53.586" height="1.445" x="154.125" y="114.274" class="cls-134"/><rect width="53.586" height="1.445" x="154.125" y="115.719" class="cls-135"/><rect width="53.586" height="1.445" x="154.125" y="117.164" class="cls-136"/><rect width="53.586" height="1.445" x="154.125" y="118.608" class="cls-137"/><rect width="53.586" height="1.445" x="154.125" y="120.053" class="cls-138"/><rect width="53.586" height="1.445" x="154.125" y="121.498" class="cls-139"/><rect width="53.586" height="1.445" x="154.125" y="122.942" class="cls-140"/><rect width="53.586" height="1.445" x="154.125" y="124.387" class="cls-141"/><rect width="53.586" height="1.445" x="154.125" y="125.831" class="cls-142"/><rect width="53.586" height="1.445" x="154.125" y="127.276" class="cls-143"/><rect width="53.586" height="1.445" x="154.125" y="128.721" class="cls-144"/><rect width="53.586" height="1.445" x="154.125" y="130.165" class="cls-145"/><rect width="53.586" height="1.445" x="154.125" y="131.61" class="cls-146"/><rect width="53.586" height="1.445" x="154.125" y="133.055" class="cls-147"/><rect width="53.586" height="1.445" x="154.125" y="134.499" class="cls-148"/><rect width="53.586" height="1.445" x="154.125" y="135.944" class="cls-149"/><rect width="53.586" height="1.445" x="154.125" y="137.388" class="cls-150"/><rect width="53.586" height="1.445" x="154.125" y="138.833" class="cls-151"/><rect width="53.586" height="1.445" x="154.125" y="140.278" class="cls-152"/><rect width="53.586" height="1.445" x="154.125" y="141.722" class="cls-153"/><rect width="53.586" height="1.445" x="154.125" y="143.167" class="cls-154"/><rect width="53.586" height="1.445" x="154.125" y="144.612" class="cls-155"/><rect width="53.586" height="1.445" x="154.125" y="146.056" class="cls-156"/><rect width="53.586" height="1.445" x="154.125" y="147.501" class="cls-157"/><rect width="53.586" height="1.445" x="154.125" y="148.945" class="cls-158"/><rect width="53.586" height="1.445" x="154.125" y="150.39" class="cls-159"/><rect width="53.586" height="1.445" x="154.125" y="151.835" class="cls-160"/><rect width="53.586" height="1.445" x="154.125" y="153.279" class="cls-161"/><rect width="53.586" height="1.445" x="154.125" y="154.724" class="cls-162"/><rect width="53.586" height="1.445" x="154.125" y="156.168" class="cls-163"/><rect width="53.586" height="1.445" x="154.125" y="157.613" class="cls-164"/><rect width="53.586" height="1.445" x="154.125" y="159.058" class="cls-165"/><rect width="53.586" height="1.445" x="154.125" y="160.502" class="cls-166"/><rect width="53.586" height="1.445" x="154.125" y="161.947" class="cls-167"/><rect width="53.586" height="1.445" x="154.125" y="163.392" class="cls-168"/><rect width="53.586" height="1.445" x="154.125" y="164.836" class="cls-169"/><rect width="53.586" height="1.445" x="154.125" y="166.281" class="cls-170"/><rect width="53.586" height="1.445" x="154.125" y="167.726" class="cls-171"/><rect width="53.586" height="1.445" x="154.125" y="169.17" class="cls-172"/><rect width="53.586" height="1.445" x="154.125" y="170.615" class="cls-173"/><rect width="53.586" height="1.445" x="154.125" y="172.059" class="cls-174"/><rect width="53.586" height="1.445" x="154.125" y="173.504" class="cls-175"/><rect width="53.586" height="1.445" x="154.125" y="174.949" class="cls-176"/><rect width="53.586" height="1.445" x="154.125" y="176.393" class="cls-177"/><rect width="53.586" height="1.445" x="154.125" y="177.838" class="cls-178"/><rect width="53.586" height="1.445" x="154.125" y="179.282" class="cls-121"/></g></svg>