<svg xmlns="http://www.w3.org/2000/svg" xmlns:xlink="http://www.w3.org/1999/xlink" id="svg2" viewBox="0 0 642.946 708.048"><defs><style>.cls-1{fill:none}.cls-2{fill:#6d2f89}.cls-3{fill:#898989}.cls-4{fill:#c5c5c5}.cls-5{fill:#2b4359}.cls-6{fill:#b78544}.cls-7{fill:#3e607f}.cls-8{clip-path:url(#clip-path)}.cls-9{fill:#6195ce}.cls-10{fill:#6194ce}.cls-11{fill:#6193ce}.cls-12{fill:#6192ce}.cls-13{fill:#6191ce}.cls-14{fill:#6190ce}.cls-15{fill:#618fce}.cls-16{fill:#618ece}.cls-17{fill:#618dce}.cls-18{fill:#618cce}.cls-19{fill:#618bce}.cls-20{fill:#618ace}.cls-21{fill:#6189ce}.cls-22{fill:#6188ce}.cls-23{fill:#6187ce}.cls-24{fill:#6186ce}.cls-25{fill:#6185ce}.cls-26{fill:#6184ce}.cls-27{fill:#6183ce}.cls-28{fill:#6182ce}.cls-29{fill:#6181ce}.cls-30{fill:#6180ce}.cls-31{fill:#617fce}.cls-32{fill:#617ece}.cls-33{fill:#617dce}.cls-34{fill:#617cce}.cls-35{fill:#617bce}.cls-36{fill:#617ace}.cls-37{fill:#6179ce}.cls-38{fill:#6178ce}.cls-39{fill:#6177ce}.cls-40{fill:#6176ce}.cls-41{fill:#6175ce}.cls-42{fill:#6174ce}.cls-43{fill:#6173ce}.cls-44{fill:#6172ce}.cls-45{fill:#6171ce}.cls-46{fill:#6170ce}.cls-47{fill:#616fce}.cls-48{fill:#616ece}.cls-49{fill:#616cce}.cls-50{fill:#616bce}.cls-51{fill:#616ace}.cls-52{fill:#6169ce}.cls-53{fill:#6168ce}.cls-54{fill:#6167ce}.cls-55{fill:#6166ce}.cls-56{fill:#6165ce}.cls-57{fill:#6164ce}.cls-58{fill:#6163ce}.cls-59{fill:#6162ce}.cls-60{fill:#6161ce}.cls-61{fill:#6160ce}.cls-62{fill:#615fce}.cls-63{fill:#615ece}.cls-64{fill:#615dce}.cls-65{fill:#615cce}.cls-66{fill:#615bce}.cls-67{fill:#615ace}.cls-68{fill:#6159ce}.cls-69{fill:#6158ce}.cls-70{fill:#6157ce}.cls-71{fill:#6156ce}.cls-72{fill:#6155ce}.cls-73{fill:#6154ce}.cls-74{fill:#6153ce}.cls-75{fill:#6152ce}.cls-76{fill:#6151ce}.cls-77{fill:#6150ce}.cls-78{fill:#614fce}.cls-79{fill:#614ece}.cls-80{fill:#614dce}.cls-81{fill:#614cce}.cls-82{fill:#614bce}.cls-83{fill:#614ace}.cls-84{fill:#6149ce}.cls-85{fill:#6148ce}.cls-86{fill:#6147ce}.cls-87{fill:#6146ce}.cls-88{fill:#fff}.cls-89{clip-path:url(#clip-path-2)}.cls-90{fill:#616dce}.cls-91{clip-path:url(#clip-path-3)}.cls-92{clip-path:url(#clip-path-4)}.cls-93{fill:#1c005e}.cls-94{fill:#1d005f}.cls-95{fill:#1e0060}.cls-96{fill:#1f0061}.cls-97{fill:#200062}.cls-98{fill:#210063}.cls-99{fill:#210064}.cls-100{fill:#220065}.cls-101{fill:#230066}.cls-102{fill:#240067}.cls-103{fill:#250068}.cls-104{fill:#260069}.cls-105{fill:#27006a}.cls-106{fill:#28006b}.cls-107{fill:#29006c}.cls-108{fill:#2a006d}.cls-109{fill:#2b006e}.cls-110{fill:#2b006f}.cls-111{fill:#2c0070}.cls-112{fill:#2d0071}.cls-113{fill:#2e0072}.cls-114{fill:#2f0073}.cls-115{fill:#300074}.cls-116{fill:#310075}.cls-117{fill:#320076}.cls-118{fill:#307}.cls-119{fill:#340078}.cls-120{fill:#340079}.cls-121{fill:#35007a}.cls-122{fill:#36007b}.cls-123{fill:#37007c}.cls-124{fill:#38007d}.cls-125{fill:#39007e}.cls-126{fill:#3a007f}.cls-127{fill:#3b0080}.cls-128{fill:#3c0081}.cls-129{fill:#3d0082}.cls-130{fill:#3e0083}.cls-131{fill:#3e0084}.cls-132{fill:#3f0085}.cls-133{fill:#400086}.cls-134{fill:#410087}.cls-135{fill:#420088}.cls-136{fill:#430089}.cls-137{fill:#44008a}.cls-138{fill:#45008b}.cls-139{fill:#46008c}.cls-140{fill:#47008d}.cls-141{fill:#48008f}.cls-142{fill:#480090}.cls-143{fill:#490091}.cls-144{fill:#4a0092}.cls-145{fill:#4b0093}.cls-146{fill:#4c0094}.cls-147{fill:#4d0095}.cls-148{fill:#4e0096}.cls-149{fill:#4f0097}.cls-150{fill:#500098}.cls-151{fill:#510099}.cls-152{fill:#51009a}.cls-153{fill:#52009b}.cls-154{fill:#53009c}.cls-155{fill:#54009d}.cls-156{fill:#55009e}.cls-157{fill:#56009f}.cls-158{fill:#5700a0}.cls-159{fill:#5800a1}.cls-160{fill:#5900a2}.cls-161{fill:#5a00a3}.cls-162{fill:#5b00a4}.cls-163{fill:#5b00a5}.cls-164{fill:#5c00a6}.cls-165{fill:#5d00a7}.cls-166{fill:#5e00a8}.cls-167{fill:#5f00a9}.cls-168{fill:#6000aa}.cls-169{fill:#6100ab}.cls-170{fill:#6200ac}.cls-171{fill:#6300ad}.cls-172{fill:#6400ae}.cls-173{fill:#6500af}.cls-174{fill:#6500b0}.cls-175{fill:#6600b1}.cls-176{fill:#6700b2}.cls-177{fill:#6800b3}.cls-178{fill:#6900b4}.cls-179{fill:#6a00b5}.cls-180{fill:#6b00b6}.cls-181{fill:#6c00b7}.cls-182{fill:#6d00b8}.cls-183{fill:#6e00b9}.cls-184{fill:#6e00ba}.cls-185{fill:#6f00bb}.cls-186{fill:#7000bc}.cls-187{fill:#7100bd}.cls-188{fill:#7200be}.cls-189{fill:#7300bf}.cls-190{fill:#f3e6fc}.cls-191{clip-path:url(#clip-path-5)}.cls-192{fill:#ffbc5a}.cls-193{fill:#febb5b}.cls-194{fill:#feba5b}.cls-195{fill:#fdb95c}.cls-196{fill:#fcb85c}.cls-197{fill:#fbb75d}.cls-198{fill:#fbb65d}.cls-199{fill:#fab55e}.cls-200{fill:#f9b45e}.cls-201{fill:#f8b35f}.cls-202{fill:#f8b25f}.cls-203{fill:#f7b160}.cls-204{fill:#f6b060}.cls-205{fill:#f5af61}.cls-206{fill:#f5ae62}.cls-207{fill:#f4ad62}.cls-208{fill:#f3ac63}.cls-209{fill:#f2ab63}.cls-210{fill:#f2aa64}.cls-211{fill:#f1a964}.cls-212{fill:#f0a865}.cls-213{fill:#efa765}.cls-214{fill:#efa666}.cls-215{fill:#eea566}.cls-216{fill:#eda467}.cls-217{fill:#eca368}.cls-218{fill:#eca268}.cls-219{fill:#eba169}.cls-220{fill:#eaa069}.cls-221{fill:#e99f6a}.cls-222{fill:#e99e6a}.cls-223{fill:#e89d6b}.cls-224{fill:#e79c6b}.cls-225{fill:#e69b6c}.cls-226{fill:#e69a6c}.cls-227{fill:#e5996d}.cls-228{fill:#e4986d}.cls-229{fill:#e3976e}.cls-230{fill:#e3966f}.cls-231{fill:#e2956f}.cls-232{fill:#e19470}.cls-233{fill:#e09370}.cls-234{fill:#e09271}.cls-235{fill:#df9171}.cls-236{fill:#de9072}.cls-237{fill:#dd8f72}.cls-238{fill:#dd8e73}.cls-239{fill:#dc8d73}.cls-240{fill:#db8c74}.cls-241{fill:#da8b74}.cls-242{fill:#da8a75}.cls-243{fill:#d98976}.cls-244{fill:#d88876}.cls-245{fill:#d78777}.cls-246{fill:#d78677}.cls-247{fill:#d68578}.cls-248{fill:#d58478}.cls-249{fill:#d48379}.cls-250{fill:#d48279}.cls-251{fill:#d3817a}.cls-252{fill:#d2807a}.cls-253{fill:#d17f7b}.cls-254{fill:#d17e7b}.cls-255{fill:#d07d7c}.cls-256{fill:#cf7c7d}.cls-257{fill:#ce7b7d}.cls-258{fill:#ce7a7e}.cls-259{fill:#cd797e}.cls-260{fill:#cc787f}.cls-261{fill:#cb777f}.cls-262{fill:#cb7680}.cls-263{fill:#ca7580}.cls-264{fill:#c97481}.cls-265{fill:#c87381}.cls-266{fill:#c87282}.cls-267{fill:#c77183}.cls-268{fill:#c67083}.cls-269{fill:#c56f84}.cls-270{fill:#c56e84}.cls-271{fill:#c46d85}.cls-272{fill:#c36c85}.cls-273{fill:#c26b86}.cls-274{fill:#c26a86}.cls-275{fill:#c16987}.cls-276{fill:#c06887}.cls-277{fill:#bf6788}.cls-278{fill:#bf6688}.cls-279{fill:#be6589}.cls-280{fill:#bd648a}.cls-281{fill:#bc638a}.cls-282{fill:#bc628b}.cls-283{fill:#bb618b}.cls-284{fill:#ba608c}.cls-285{fill:#b95f8c}.cls-286{fill:#b95d8d}.cls-287{fill:#b85c8d}.cls-288{fill:#b75b8e}.cls-289{fill:#b65a8e}.cls-290{fill:#b6598f}.cls-291{fill:#b5588f}.cls-292{fill:#b45790}.cls-293{fill:#b35691}.cls-294{fill:#b35591}.cls-295{fill:#b25492}.cls-296{fill:#b15392}.cls-297{fill:#b05293}.cls-298{fill:#b05193}.cls-299{fill:#af5094}.cls-300{fill:#ae4f94}.cls-301{fill:#ad4e95}.cls-302{fill:#ad4d95}.cls-303{fill:#ac4c96}.cls-304{fill:#ab4b96}.cls-305{fill:#aa4a97}.cls-306{fill:#aa4998}.cls-307{fill:#a94898}.cls-308{fill:#a84799}.cls-309{fill:#a74699}.cls-310{fill:#a7459a}.cls-311{fill:#a6449a}.cls-312{fill:#a5439b}.cls-313{fill:#a4429b}.cls-314{fill:#a4419c}.cls-315{fill:#a3409c}.cls-316{fill:#a23f9d}.cls-317{fill:#a13e9e}.cls-318{fill:#a13d9e}.cls-319{fill:#a03c9f}.cls-320{fill:#9f3b9f}.cls-321{fill:#9e3aa0}.cls-322{fill:#9e39a0}.cls-323{fill:#9d38a1}.cls-324{fill:#9c37a1}.cls-325{fill:#9b36a2}.cls-326{fill:#9b35a2}.cls-327{fill:#9a34a3}.cls-328{fill:#9933a3}.cls-329{fill:#9832a4}.cls-330{fill:#9831a5}.cls-331{fill:#9730a5}.cls-332{fill:#962fa6}.cls-333{fill:#952ea6}.cls-334{fill:#952da7}.cls-335{fill:#942ca7}.cls-336{fill:#932ba8}.cls-337{fill:#922aa8}.cls-338{fill:#9229a9}.cls-339{fill:#9128a9}.cls-340{fill:#9027aa}.cls-341{fill:#8f26aa}.cls-342{fill:#8f25ab}.cls-343{fill:#8e24ac}.cls-344{fill:#8d23ac}.cls-345{fill:#8c22ad}.cls-346{fill:#8c21ad}.cls-347{fill:#8b20ae}.cls-348{fill:#8a1fae}.cls-349{fill:#891eaf}.cls-350{fill:#891daf}.cls-351{fill:#881cb0}.cls-352{fill:#871bb0}.cls-353{fill:#861ab1}.cls-354{fill:#8619b1}.cls-355{fill:#8518b2}.cls-356{fill:#8417b3}.cls-357{fill:#8316b3}.cls-358{fill:#8315b4}.cls-359{fill:#8214b4}.cls-360{fill:#8113b5}.cls-361{fill:#8012b5}.cls-362{fill:#8011b6}.cls-363{fill:#7f10b6}.cls-364{fill:#7e0fb7}.cls-365{fill:#7d0eb7}.cls-366{fill:#7d0db8}.cls-367{fill:#7c0cb9}.cls-368{fill:#7b0bb9}.cls-369{fill:#7a0aba}.cls-370{fill:#7a09ba}.cls-371{fill:#7908bb}.cls-372{fill:#7807bb}.cls-373{fill:#7706bc}.cls-374{fill:#7705bc}.cls-375{fill:#7604bd}.cls-376{fill:#7503bd}.cls-377{fill:#7402be}.cls-378{fill:#7401be}.cls-379{fill:#f2e4fd}</style><clipPath id="clip-path"><path d="M511.13385,81.314c-5.45836-23.64815-22.19818-22.54991-40.136-17.40887a40.067,40.067,0,0,0-11.77666,5.54451C438.47294,34.31888,398.61488,12.69368,322.509,12.69368c-76.17256,0-116.73964,22.936-138.27156,59.56537a39.291,39.291,0,0,0-15.34564-8.354c-17.93784-5.141-34.678-6.23928-40.13634,17.40887s6.88509,30.884,24.82293,36.02505a39.96475,39.96475,0,0,0,13.5737,1.498c-8.91515,42.56555-6.66165,94.04161-6.66165,146.9481,0,130.9108-21.79812,231.95835,162.01856,231.95835,183.817,0,158.26148-107.83409,158.26148-238.7455,0-51.02734,2.6703-99.6952-4.48253-140.09215a40.55737,40.55737,0,0,0,10.02332-1.5668C504.24908,112.198,516.59221,104.96211,511.13385,81.314Z" class="cls-1"/></clipPath><clipPath id="clip-path-2"><path d="M352.65706,229.38261c0,12.132-14.51816,9.05683-32.42723,9.05683s-32.42722,3.0752-32.42722-9.05683,14.51816-21.967,32.42722-21.967S352.65706,217.25058,352.65706,229.38261Z" class="cls-1"/></clipPath><clipPath id="clip-path-3"><ellipse cx="320.23" cy="213.647" class="cls-1" rx="16.591" ry="9.454"/></clipPath><clipPath id="clip-path-4"><polygon points="320.507 335.825 319.893 552.594 140.15 448.82 140.765 232.05 320.507 335.825" class="cls-1"/></clipPath><clipPath id="clip-path-5"><polygon points="499.082 232.049 498.467 448.818 319.893 552.594 320.507 336.143 499.082 232.049" class="cls-1"/></clipPath></defs><title>chaoskube</title><path d="M319.57765,103.24873,113.85779,219.20783l.07947,248.74665,206.2578,119.0831L525.11249,467.95272l.70537-248.74665ZM470.28948,251.47552" class="cls-2"/><polygon points="494.382 232.051 493.768 448.82 318.74 347.768 319.355 130.999 494.382 232.051" class="cls-3"/><polygon points="319.355 130.999 318.74 347.768 144.85 448.822 145.465 232.053 319.355 130.999" class="cls-4"/><polygon points="320.492 333.104 319.878 549.874 144.85 448.822 145.465 232.052 320.492 333.104" class="cls-5"/><polygon points="494.382 232.05 320.492 333.104 145.465 232.052 319.355 130.998 494.382 232.05" class="cls-6"/><polygon points="494.382 232.05 493.767 448.82 319.878 549.874 320.492 333.104 494.382 232.05" class="cls-7"/><g class="cls-8"><rect width="393.295" height="3.57" x="123.297" y="12.694" class="cls-9"/><rect width="393.295" height="3.443" x="123.297" y="16.264" class="cls-9"/><rect width="393.295" height="3.443" x="123.297" y="19.706" class="cls-10"/><rect width="393.295" height="3.443" x="123.297" y="23.149" class="cls-11"/><rect width="393.295" height="3.443" x="123.297" y="26.592" class="cls-12"/><rect width="393.295" height="3.443" x="123.297" y="30.034" class="cls-13"/><rect width="393.295" height="3.443" x="123.297" y="33.477" class="cls-14"/><rect width="393.295" height="3.443" x="123.297" y="36.92" class="cls-15"/><rect width="393.295" height="3.443" x="123.297" y="40.362" class="cls-16"/><rect width="393.295" height="3.443" x="123.297" y="43.805" class="cls-17"/><rect width="393.295" height="3.443" x="123.297" y="47.248" class="cls-18"/><rect width="393.295" height="3.443" x="123.297" y="50.691" class="cls-19"/><rect width="393.295" height="3.443" x="123.297" y="54.133" class="cls-20"/><rect width="393.295" height="3.443" x="123.297" y="57.576" class="cls-21"/><rect width="393.295" height="3.443" x="123.297" y="61.019" class="cls-22"/><rect width="393.295" height="3.443" x="123.297" y="64.461" class="cls-23"/><rect width="393.295" height="3.443" x="123.297" y="67.904" class="cls-24"/><rect width="393.295" height="3.443" x="123.297" y="71.347" class="cls-25"/><rect width="393.295" height="3.443" x="123.297" y="74.789" class="cls-26"/><rect width="393.295" height="3.443" x="123.297" y="78.232" class="cls-27"/><rect width="393.295" height="3.443" x="123.297" y="81.675" class="cls-28"/><rect width="393.295" height="3.443" x="123.297" y="85.117" class="cls-29"/><rect width="393.295" height="3.443" x="123.297" y="88.56" class="cls-30"/><rect width="393.295" height="3.443" x="123.297" y="92.003" class="cls-31"/><rect width="393.295" height="3.443" x="123.297" y="95.445" class="cls-32"/><rect width="393.295" height="3.443" x="123.297" y="98.888" class="cls-33"/><rect width="393.295" height="3.443" x="123.297" y="102.331" class="cls-34"/><rect width="393.295" height="3.443" x="123.297" y="105.774" class="cls-35"/><rect width="393.295" height="3.443" x="123.297" y="109.216" class="cls-36"/><rect width="393.295" height="3.443" x="123.297" y="112.659" class="cls-37"/><rect width="393.295" height="3.443" x="123.297" y="116.102" class="cls-38"/><rect width="393.295" height="3.443" x="123.297" y="119.544" class="cls-39"/><rect width="393.295" height="3.443" x="123.297" y="122.987" class="cls-40"/><rect width="393.295" height="3.443" x="123.297" y="126.43" class="cls-41"/><rect width="393.295" height="3.443" x="123.297" y="129.872" class="cls-42"/><rect width="393.295" height="3.443" x="123.297" y="133.315" class="cls-43"/><rect width="393.295" height="3.443" x="123.297" y="136.758" class="cls-44"/><rect width="393.295" height="3.443" x="123.297" y="140.2" class="cls-45"/><rect width="393.295" height="3.443" x="123.297" y="143.643" class="cls-46"/><rect width="393.295" height="3.443" x="123.297" y="147.086" class="cls-47"/><rect width="393.295" height="3.443" x="123.297" y="150.529" class="cls-48"/><rect width="393.295" height="3.443" x="123.297" y="153.971" class="cls-49"/><rect width="393.295" height="3.443" x="123.297" y="157.414" class="cls-50"/><rect width="393.295" height="3.443" x="123.297" y="160.857" class="cls-51"/><rect width="393.295" height="3.443" x="123.297" y="164.299" class="cls-52"/><rect width="393.295" height="3.443" x="123.297" y="167.742" class="cls-53"/><rect width="393.295" height="3.443" x="123.297" y="171.185" class="cls-54"/><rect width="393.295" height="3.443" x="123.297" y="174.627" class="cls-55"/><rect width="393.295" height="3.443" x="123.297" y="178.07" class="cls-56"/><rect width="393.295" height="3.443" x="123.297" y="181.513" class="cls-57"/><rect width="393.295" height="3.443" x="123.297" y="184.955" class="cls-58"/><rect width="393.295" height="3.443" x="123.297" y="188.398" class="cls-59"/><rect width="393.295" height="3.443" x="123.297" y="191.841" class="cls-60"/><rect width="393.295" height="3.443" x="123.297" y="195.284" class="cls-61"/><rect width="393.295" height="3.443" x="123.297" y="198.726" class="cls-62"/><rect width="393.295" height="3.443" x="123.297" y="202.169" class="cls-63"/><rect width="393.295" height="3.443" x="123.297" y="205.612" class="cls-64"/><rect width="393.295" height="3.443" x="123.297" y="209.054" class="cls-65"/><rect width="393.295" height="3.443" x="123.297" y="212.497" class="cls-66"/><rect width="393.295" height="3.443" x="123.297" y="215.94" class="cls-67"/><rect width="393.295" height="3.443" x="123.297" y="219.382" class="cls-68"/><rect width="393.295" height="3.443" x="123.297" y="222.825" class="cls-69"/><rect width="393.295" height="3.443" x="123.297" y="226.268" class="cls-70"/><rect width="393.295" height="3.443" x="123.297" y="229.71" class="cls-71"/><rect width="393.295" height="3.443" x="123.297" y="233.153" class="cls-72"/><rect width="393.295" height="3.443" x="123.297" y="236.596" class="cls-73"/><rect width="393.295" height="3.443" x="123.297" y="240.039" class="cls-74"/><rect width="393.295" height="3.443" x="123.297" y="243.481" class="cls-75"/><rect width="393.295" height="3.443" x="123.297" y="246.924" class="cls-76"/><rect width="393.295" height="3.443" x="123.297" y="250.367" class="cls-77"/><rect width="393.295" height="3.443" x="123.297" y="253.809" class="cls-78"/><rect width="393.295" height="3.443" x="123.297" y="257.252" class="cls-79"/><rect width="393.295" height="3.443" x="123.297" y="260.695" class="cls-80"/><rect width="393.295" height="3.443" x="123.297" y="264.137" class="cls-81"/><rect width="393.295" height="3.443" x="123.297" y="267.58" class="cls-82"/><rect width="393.295" height="3.443" x="123.297" y="271.023" class="cls-83"/><rect width="393.295" height="3.443" x="123.297" y="274.465" class="cls-84"/><rect width="393.295" height="3.443" x="123.297" y="277.908" class="cls-85"/><rect width="393.295" height="3.443" x="123.297" y="281.351" class="cls-86"/><rect width="393.295" height="3.443" x="123.297" y="284.794" class="cls-87"/><rect width="393.295" height="209.507" x="123.297" y="288.236" class="cls-87"/></g><path d="M322.50877,500.09788c-33.31411,0-60.30279-3.22825-82.50888-9.86908-21.00277-6.28079-37.26664-15.49072-49.72054-28.15558-34.63162-35.21815-33.672-92.37316-32.5607-158.55322.20464-12.21725.41694-24.8503.41694-37.73494,0-8.95069-.06515-17.97457-.12876-26.70126-.30811-42.58728-.60089-82.87486,6.24956-117.81363a42.55742,42.55742,0,0,1-11.32646-1.66759c-16.07763-4.608-32.70786-11.78785-26.46827-38.8183,2.15907-9.35575,6.09474-15.60416,12.03235-19.10258,8.99342-5.298,20.74142-2.99391,31.04622-.03986a42.28463,42.28463,0,0,1,14.09331,7.06161c11.57479-18.68238,27.38876-32.47142,48.26278-42.101,23.7221-10.94362,53.3619-16.26329,90.61245-16.26329,37.25439,0,66.71714,5.03953,90.07059,15.40641,20.69466,9.18656,36.22352,22.41935,47.39823,40.40887a42.61942,42.61942,0,0,1,10.37147-4.51281c10.30556-2.95386,22.05433-5.258,31.04622.04005,5.93761,3.49823,9.87329,9.74683,12.03235,19.10277v-.00019c6.23959,27.03045-10.39064,34.21027-26.46826,38.81811a43.288,43.288,0,0,1-7.90737,1.49341c5.16964,31.24281,4.75806,67.14289,4.32272,105.0911-.12263,10.69147-.24986,21.74718-.24986,32.81114,0,14.61851.32037,28.99426.63,42.89654,1.48842,66.80814,2.77375,124.50542-32.28249,160.35109C426.56307,487.71622,384.37817,500.09788,322.50877,500.09788ZM170.0913,116.28754l-.63461,3.03223c-7.354,35.11027-7.05586,76.21333-6.74085,119.72992.06362,8.73513.12876,17.76763.12876,26.73537,0,12.92411-.2123,25.57747-.41771,37.81408-1.09371,65.121-2.038,121.36148,31.21024,155.17244,11.88289,12.08409,27.48916,20.89816,47.7117,26.94576,21.76232,6.50785,48.30953,9.67152,81.15994,9.67152,60.53656,0,101.61932-11.91834,125.59741-36.43563,33.67051-34.42909,32.40512-91.20856,30.94045-156.95365-.30964-13.92815-.63078-28.33072-.63078-43.00154,0-11.091.12723-22.1603.24986-32.86537.4453-38.77845.86531-75.40627-4.696-106.81635l-.476-2.68714,2.72853-.07684a38.20971,38.20971,0,0,0,9.44025-1.47674c18.76477-5.37811,28.01647-12.26688,23.17717-33.2321v-.00019c-1.85326-8.02924-5.07-13.29718-9.835-16.10446-7.45747-4.39362-18.01519-2.248-27.35887.42959a37.63515,37.63515,0,0,0-11.085,5.217l-2.08012,1.44034-1.28686-2.1788C434.79081,32.715,391.99429,15.04819,322.50877,15.04819c-36.55462,0-65.54907,5.17807-88.63964,15.83026-20.84335,9.61538-36.41436,23.54141-47.6021,42.57367l-1.4547,2.47465-2.1422-1.91055a37.09536,37.09536,0,0,0-14.42672-7.84758c-9.34444-2.67814-19.90216-4.823-27.35887-.42979-4.765,2.80728-7.98171,8.07522-9.835,16.10446-4.83931,20.96541,4.4124,27.85418,23.17716,33.23248a37.49014,37.49014,0,0,0,12.77351,1.41179Z" class="cls-88"/><ellipse cx="259.502" cy="151.583" class="cls-88" rx="51.641" ry="48.12" transform="translate(61.50358 377.66957) rotate(-79.07988)"/><ellipse cx="380.388" cy="151.583" class="cls-88" rx="48.12" ry="51.641" transform="translate(-21.82792 74.80556) rotate(-10.92012)"/><rect width="37.8" height="20.541" x="301.33" y="231.746" class="cls-88" rx="8.751"/><g class="cls-89"><rect width="1.118" height="34.099" x="287.803" y="207.416" class="cls-9"/><rect width="1.118" height="34.099" x="288.921" y="207.416" class="cls-10"/><rect width="1.118" height="34.099" x="290.039" y="207.416" class="cls-11"/><rect width="1.118" height="34.099" x="291.157" y="207.416" class="cls-12"/><rect width="1.118" height="34.099" x="292.275" y="207.416" class="cls-13"/><rect width="1.118" height="34.099" x="293.394" y="207.416" class="cls-14"/><rect width="1.118" height="34.099" x="294.512" y="207.416" class="cls-15"/><rect width="1.118" height="34.099" x="295.63" y="207.416" class="cls-16"/><rect width="1.118" height="34.099" x="296.748" y="207.416" class="cls-17"/><rect width="1.118" height="34.099" x="297.866" y="207.416" class="cls-18"/><rect width="1.118" height="34.099" x="298.984" y="207.416" class="cls-19"/><rect width="1.118" height="34.099" x="300.103" y="207.416" class="cls-20"/><rect width="1.118" height="34.099" x="301.221" y="207.416" class="cls-21"/><rect width="1.118" height="34.099" x="302.339" y="207.416" class="cls-22"/><rect width="1.118" height="34.099" x="303.457" y="207.416" class="cls-23"/><rect width="1.118" height="34.099" x="304.575" y="207.416" class="cls-24"/><rect width="1.118" height="34.099" x="305.693" y="207.416" class="cls-25"/><rect width="1.118" height="34.099" x="306.812" y="207.416" class="cls-26"/><rect width="1.118" height="34.099" x="307.93" y="207.416" class="cls-27"/><rect width="1.118" height="34.099" x="309.048" y="207.416" class="cls-28"/><rect width="1.118" height="34.099" x="310.166" y="207.416" class="cls-29"/><rect width="1.118" height="34.099" x="311.284" y="207.416" class="cls-30"/><rect width="1.118" height="34.099" x="312.403" y="207.416" class="cls-31"/><rect width="1.118" height="34.099" x="313.521" y="207.416" class="cls-32"/><rect width="1.118" height="34.099" x="314.639" y="207.416" class="cls-33"/><rect width="1.118" height="34.099" x="315.757" y="207.416" class="cls-34"/><rect width="1.118" height="34.099" x="316.875" y="207.416" class="cls-35"/><rect width="1.118" height="34.099" x="317.993" y="207.416" class="cls-36"/><rect width="1.118" height="34.099" x="319.112" y="207.416" class="cls-37"/><rect width="1.118" height="34.099" x="320.23" y="207.416" class="cls-39"/><rect width="1.118" height="34.099" x="321.348" y="207.416" class="cls-40"/><rect width="1.118" height="34.099" x="322.466" y="207.416" class="cls-41"/><rect width="1.118" height="34.099" x="323.584" y="207.416" class="cls-42"/><rect width="1.118" height="34.099" x="324.703" y="207.416" class="cls-43"/><rect width="1.118" height="34.099" x="325.821" y="207.416" class="cls-44"/><rect width="1.118" height="34.099" x="326.939" y="207.416" class="cls-45"/><rect width="1.118" height="34.099" x="328.057" y="207.416" class="cls-46"/><rect width="1.118" height="34.099" x="329.175" y="207.416" class="cls-47"/><rect width="1.118" height="34.099" x="330.293" y="207.416" class="cls-48"/><rect width="1.118" height="34.099" x="331.412" y="207.416" class="cls-90"/><rect width="1.118" height="34.099" x="332.53" y="207.416" class="cls-49"/><rect width="1.118" height="34.099" x="333.648" y="207.416" class="cls-50"/><rect width="1.118" height="34.099" x="334.766" y="207.416" class="cls-51"/><rect width="1.118" height="34.099" x="335.884" y="207.416" class="cls-52"/><rect width="1.118" height="34.099" x="337.003" y="207.416" class="cls-53"/><rect width="1.118" height="34.099" x="338.121" y="207.416" class="cls-54"/><rect width="1.118" height="34.099" x="339.239" y="207.416" class="cls-55"/><rect width="1.118" height="34.099" x="340.357" y="207.416" class="cls-56"/><rect width="1.118" height="34.099" x="341.475" y="207.416" class="cls-57"/><rect width="1.118" height="34.099" x="342.593" y="207.416" class="cls-58"/><rect width="1.118" height="34.099" x="343.712" y="207.416" class="cls-59"/><rect width="1.118" height="34.099" x="344.83" y="207.416" class="cls-60"/><rect width="1.118" height="34.099" x="345.948" y="207.416" class="cls-61"/><rect width="1.118" height="34.099" x="347.066" y="207.416" class="cls-62"/><rect width="1.118" height="34.099" x="348.184" y="207.416" class="cls-63"/><rect width="1.118" height="34.099" x="349.303" y="207.416" class="cls-64"/><rect width="1.118" height="34.099" x="350.421" y="207.416" class="cls-65"/><rect width="1.118" height="34.099" x="351.539" y="207.416" class="cls-66"/></g><path d="M336.73775,241.14227c-2.31772,0-4.80252-.07837-7.42988-.16115-2.91861-.092-5.93685-.1872-9.07773-.1872s-6.15911.09523-9.07772.1872c-10.26494.32363-18.37542.57943-22.73646-3.64557a10.605,10.605,0,0,1-2.96766-7.953c0-13.411,15.6032-24.32146,34.78184-24.32146s34.78109,10.91048,34.78109,24.32146a10.60507,10.60507,0,0,1-2.96766,7.953C348.79922,240.4793,343.47783,241.14227,336.73775,241.14227Zm-16.50761-31.37215c-16.58194,0-30.07283,8.79817-30.07283,19.61245a6.04959,6.04959,0,0,0,1.536,4.57106c2.9278,2.83736,10.52016,2.59747,19.31047,2.32078,2.9554-.09312,6.0112-.1895,9.22641-.1895s6.271.09638,9.22565.1895c8.78725.27669,16.38191.517,19.31048-2.32078a6.04959,6.04959,0,0,0,1.53594-4.57106C350.30221,218.56829,336.81209,209.77012,320.23014,209.77012Z" class="cls-88"/><g class="cls-91"><rect width=".572" height="18.909" x="303.638" y="204.193" class="cls-9"/><rect width=".572" height="18.909" x="304.21" y="204.193" class="cls-10"/><rect width=".572" height="18.909" x="304.783" y="204.193" class="cls-11"/><rect width=".572" height="18.909" x="305.355" y="204.193" class="cls-12"/><rect width=".572" height="18.909" x="305.927" y="204.193" class="cls-13"/><rect width=".572" height="18.909" x="306.499" y="204.193" class="cls-14"/><rect width=".572" height="18.909" x="307.071" y="204.193" class="cls-15"/><rect width=".572" height="18.909" x="307.643" y="204.193" class="cls-16"/><rect width=".572" height="18.909" x="308.215" y="204.193" class="cls-17"/><rect width=".572" height="18.909" x="308.787" y="204.193" class="cls-18"/><rect width=".572" height="18.909" x="309.36" y="204.193" class="cls-19"/><rect width=".572" height="18.909" x="309.932" y="204.193" class="cls-20"/><rect width=".572" height="18.909" x="310.504" y="204.193" class="cls-21"/><rect width=".572" height="18.909" x="311.076" y="204.193" class="cls-22"/><rect width=".572" height="18.909" x="311.648" y="204.193" class="cls-23"/><rect width=".572" height="18.909" x="312.22" y="204.193" class="cls-24"/><rect width=".572" height="18.909" x="312.792" y="204.193" class="cls-25"/><rect width=".572" height="18.909" x="313.364" y="204.193" class="cls-26"/><rect width=".572" height="18.909" x="313.937" y="204.193" class="cls-27"/><rect width=".572" height="18.909" x="314.509" y="204.193" class="cls-28"/><rect width=".572" height="18.909" x="315.081" y="204.193" class="cls-29"/><rect width=".572" height="18.909" x="315.653" y="204.193" class="cls-30"/><rect width=".572" height="18.909" x="316.225" y="204.193" class="cls-31"/><rect width=".572" height="18.909" x="316.797" y="204.193" class="cls-32"/><rect width=".572" height="18.909" x="317.369" y="204.193" class="cls-33"/><rect width=".572" height="18.909" x="317.941" y="204.193" class="cls-34"/><rect width=".572" height="18.909" x="318.513" y="204.193" class="cls-35"/><rect width=".572" height="18.909" x="319.086" y="204.193" class="cls-36"/><rect width=".572" height="18.909" x="319.658" y="204.193" class="cls-37"/><rect width=".572" height="18.909" x="320.23" y="204.193" class="cls-39"/><rect width=".572" height="18.909" x="320.802" y="204.193" class="cls-40"/><rect width=".572" height="18.909" x="321.374" y="204.193" class="cls-41"/><rect width=".572" height="18.909" x="321.946" y="204.193" class="cls-42"/><rect width=".572" height="18.909" x="322.518" y="204.193" class="cls-43"/><rect width=".572" height="18.909" x="323.09" y="204.193" class="cls-44"/><rect width=".572" height="18.909" x="323.663" y="204.193" class="cls-45"/><rect width=".572" height="18.909" x="324.235" y="204.193" class="cls-46"/><rect width=".572" height="18.909" x="324.807" y="204.193" class="cls-47"/><rect width=".572" height="18.909" x="325.379" y="204.193" class="cls-48"/><rect width=".572" height="18.909" x="325.951" y="204.193" class="cls-90"/><rect width=".572" height="18.909" x="326.523" y="204.193" class="cls-49"/><rect width=".572" height="18.909" x="327.095" y="204.193" class="cls-50"/><rect width=".572" height="18.909" x="327.667" y="204.193" class="cls-51"/><rect width=".572" height="18.909" x="328.24" y="204.193" class="cls-52"/><rect width=".572" height="18.909" x="328.812" y="204.193" class="cls-53"/><rect width=".572" height="18.909" x="329.384" y="204.193" class="cls-54"/><rect width=".572" height="18.909" x="329.956" y="204.193" class="cls-55"/><rect width=".572" height="18.909" x="330.528" y="204.193" class="cls-56"/><rect width=".572" height="18.909" x="331.1" y="204.193" class="cls-57"/><rect width=".572" height="18.909" x="331.672" y="204.193" class="cls-58"/><rect width=".572" height="18.909" x="332.244" y="204.193" class="cls-59"/><rect width=".572" height="18.909" x="332.816" y="204.193" class="cls-60"/><rect width=".572" height="18.909" x="333.389" y="204.193" class="cls-61"/><rect width=".572" height="18.909" x="333.961" y="204.193" class="cls-62"/><rect width=".572" height="18.909" x="334.533" y="204.193" class="cls-63"/><rect width=".572" height="18.909" x="335.105" y="204.193" class="cls-64"/><rect width=".572" height="18.909" x="335.677" y="204.193" class="cls-65"/><rect width=".572" height="18.909" x="336.249" y="204.193" class="cls-66"/></g><path d="M320.23014,225.4561c-10.6244,0-18.94641-5.18708-18.94641-11.80875s8.322-11.80874,18.94641-11.80874c10.62364,0,18.94565,5.18708,18.94565,11.80874S330.85378,225.4561,320.23014,225.4561Zm0-18.90848c-8.39022,0-14.2374,3.74157-14.2374,7.09973s5.84718,7.09974,14.2374,7.09974,14.23664-3.74158,14.23664-7.09974S328.62037,206.54762,320.23014,206.54762Z" class="cls-88"/><circle cx="264.621" cy="152.429" r="5.12" class="cls-9"/><circle cx="376.864" cy="152.429" r="5.12" class="cls-9"/><path d="M174.71474,93.16152c-1.8927,6.95053-8.72153,11.14331-15.25264,9.36483s-14.98587-11.202-13.09318-18.15258,13.41614-8.796,19.94724-7.01752S176.60744,86.211,174.71474,93.16152Z" class="cls-88"/><path d="M467.52758,92.72147c-2.24906-6.84354,1.14073-14.10451,7.57129-16.21784s18.67793,1.09429,20.927,7.93783-6.35188,14.73146-12.78244,16.84479S469.77663,99.565,467.52758,92.72147Z" class="cls-88"/><g class="cls-92"><polygon points="320.507 384.581 200.829 232.05 320.507 232.05 320.507 384.581" class="cls-93"/><polygon points="320.507 387.217 198.761 232.05 200.829 232.05 320.507 384.581 320.507 387.217" class="cls-93"/><polygon points="320.507 389.853 196.693 232.05 198.761 232.05 320.507 387.217 320.507 389.853" class="cls-94"/><polygon points="320.507 392.489 194.625 232.05 196.693 232.05 320.507 389.853 320.507 392.489" class="cls-95"/><polygon points="320.507 395.125 192.557 232.05 194.625 232.05 320.507 392.489 320.507 395.125" class="cls-96"/><polygon points="320.507 397.761 190.489 232.05 192.557 232.05 320.507 395.125 320.507 397.761" class="cls-97"/><polygon points="320.507 400.396 188.42 232.05 190.489 232.05 320.507 397.761 320.507 400.396" class="cls-98"/><polygon points="320.507 403.032 186.352 232.05 188.42 232.05 320.507 400.396 320.507 403.032" class="cls-99"/><polygon points="320.507 405.668 184.284 232.05 186.352 232.05 320.507 403.032 320.507 405.668" class="cls-100"/><polygon points="320.507 408.304 182.216 232.05 184.284 232.05 320.507 405.668 320.507 408.304" class="cls-101"/><polygon points="320.507 410.94 180.148 232.05 182.216 232.05 320.507 408.304 320.507 410.94" class="cls-102"/><polygon points="320.507 413.576 178.08 232.05 180.148 232.05 320.507 410.94 320.507 413.576" class="cls-103"/><polygon points="320.507 416.212 176.011 232.05 178.08 232.05 320.507 413.576 320.507 416.212" class="cls-104"/><polygon points="320.507 418.848 173.943 232.05 176.011 232.05 320.507 416.212 320.507 418.848" class="cls-105"/><polygon points="320.507 421.483 171.875 232.05 173.943 232.05 320.507 418.848 320.507 421.483" class="cls-106"/><polygon points="320.507 424.119 169.807 232.05 171.875 232.05 320.507 421.483 320.507 424.119" class="cls-107"/><polygon points="320.507 426.755 167.739 232.05 169.807 232.05 320.507 424.119 320.507 426.755" class="cls-108"/><polygon points="320.507 429.391 165.671 232.05 167.739 232.05 320.507 426.755 320.507 429.391" class="cls-109"/><polygon points="320.507 432.027 163.603 232.05 165.671 232.05 320.507 429.391 320.507 432.027" class="cls-110"/><polygon points="320.507 434.663 161.534 232.05 163.603 232.05 320.507 432.027 320.507 434.663" class="cls-111"/><polygon points="320.507 437.299 159.466 232.05 161.534 232.05 320.507 434.663 320.507 437.299" class="cls-112"/><polygon points="320.507 439.935 157.398 232.05 159.466 232.05 320.507 437.299 320.507 439.935" class="cls-113"/><polygon points="320.507 442.571 155.33 232.05 157.398 232.05 320.507 439.935 320.507 442.571" class="cls-114"/><polygon points="320.507 445.206 153.262 232.05 155.33 232.05 320.507 442.571 320.507 445.206" class="cls-115"/><polygon points="320.507 447.842 151.194 232.05 153.262 232.05 320.507 445.206 320.507 447.842" class="cls-116"/><polygon points="320.507 450.478 149.125 232.05 151.194 232.05 320.507 447.842 320.507 450.478" class="cls-117"/><polygon points="320.507 453.114 147.057 232.05 149.125 232.05 320.507 450.478 320.507 453.114" class="cls-118"/><polygon points="320.507 455.75 144.989 232.05 147.057 232.05 320.507 453.114 320.507 455.75" class="cls-119"/><polygon points="320.507 458.386 142.921 232.05 144.989 232.05 320.507 455.75 320.507 458.386" class="cls-120"/><polygon points="320.507 461.022 140.853 232.05 142.921 232.05 320.507 458.386 320.507 461.022" class="cls-121"/><polygon points="320.507 463.658 140.15 233.791 140.15 232.05 140.853 232.05 320.507 461.022 320.507 463.658" class="cls-122"/><polygon points="320.507 466.293 140.15 236.426 140.15 233.791 320.507 463.658 320.507 466.293" class="cls-123"/><polygon points="320.507 468.929 140.15 239.062 140.15 236.426 320.507 466.293 320.507 468.929" class="cls-124"/><polygon points="320.507 471.565 140.15 241.698 140.15 239.062 320.507 468.929 320.507 471.565" class="cls-125"/><polygon points="320.507 474.201 140.15 244.334 140.15 241.698 320.507 471.565 320.507 474.201" class="cls-126"/><polygon points="320.507 476.837 140.15 246.97 140.15 244.334 320.507 474.201 320.507 476.837" class="cls-127"/><polygon points="320.507 479.473 140.15 249.606 140.15 246.97 320.507 476.837 320.507 479.473" class="cls-128"/><polygon points="320.507 482.109 140.15 252.242 140.15 249.606 320.507 479.473 320.507 482.109" class="cls-129"/><polygon points="320.507 484.745 140.15 254.878 140.15 252.242 320.507 482.109 320.507 484.745" class="cls-130"/><polygon points="320.507 487.38 140.15 257.513 140.15 254.878 320.507 484.745 320.507 487.38" class="cls-131"/><polygon points="320.507 490.016 140.15 260.149 140.15 257.513 320.507 487.38 320.507 490.016" class="cls-132"/><polygon points="320.507 492.652 140.15 262.785 140.15 260.149 320.507 490.016 320.507 492.652" class="cls-133"/><polygon points="320.507 495.288 140.15 265.421 140.15 262.785 320.507 492.652 320.507 495.288" class="cls-134"/><polygon points="320.507 497.924 140.15 268.057 140.15 265.421 320.507 495.288 320.507 497.924" class="cls-135"/><polygon points="320.507 500.56 140.15 270.693 140.15 268.057 320.507 497.924 320.507 500.56" class="cls-136"/><polygon points="320.507 503.196 140.15 273.329 140.15 270.693 320.507 500.56 320.507 503.196" class="cls-137"/><polygon points="320.507 505.832 140.15 275.965 140.15 273.329 320.507 503.196 320.507 505.832" class="cls-138"/><polygon points="320.507 508.468 140.15 278.6 140.15 275.965 320.507 505.832 320.507 508.468" class="cls-139"/><polygon points="320.507 511.103 140.15 281.236 140.15 278.6 320.507 508.468 320.507 511.103" class="cls-140"/><polygon points="320.507 513.739 140.15 283.872 140.15 281.236 320.507 511.103 320.507 513.739" class="cls-141"/><polygon points="320.507 516.375 140.15 286.508 140.15 283.872 320.507 513.739 320.507 516.375" class="cls-142"/><polygon points="320.507 519.011 140.15 289.144 140.15 286.508 320.507 516.375 320.507 519.011" class="cls-143"/><polygon points="320.507 521.647 140.15 291.78 140.15 289.144 320.507 519.011 320.507 521.647" class="cls-144"/><polygon points="320.507 524.283 140.15 294.416 140.15 291.78 320.507 521.647 320.507 524.283" class="cls-145"/><polygon points="320.507 526.919 140.15 297.052 140.15 294.416 320.507 524.283 320.507 526.919" class="cls-146"/><polygon points="320.507 529.555 140.15 299.688 140.15 297.052 320.507 526.919 320.507 529.555" class="cls-147"/><polygon points="320.507 532.19 140.15 302.323 140.15 299.688 320.507 529.555 320.507 532.19" class="cls-148"/><polygon points="320.507 534.826 140.15 304.959 140.15 302.323 320.507 532.19 320.507 534.826" class="cls-149"/><polygon points="320.507 537.462 140.15 307.595 140.15 304.959 320.507 534.826 320.507 537.462" class="cls-150"/><polygon points="320.507 540.098 140.15 310.231 140.15 307.595 320.507 537.462 320.507 540.098" class="cls-151"/><polygon points="320.507 542.734 140.15 312.867 140.15 310.231 320.507 540.098 320.507 542.734" class="cls-152"/><polygon points="320.507 545.37 140.15 315.503 140.15 312.867 320.507 542.734 320.507 545.37" class="cls-153"/><polygon points="320.507 548.006 140.15 318.139 140.15 315.503 320.507 545.37 320.507 548.006" class="cls-154"/><polygon points="320.507 550.642 140.15 320.775 140.15 318.139 320.507 548.006 320.507 550.642" class="cls-155"/><polygon points="319.971 552.594 140.15 323.41 140.15 320.775 320.507 550.642 320.507 552.594 319.971 552.594" class="cls-156"/><polygon points="317.903 552.594 140.15 326.046 140.15 323.41 319.971 552.594 317.903 552.594" class="cls-157"/><polygon points="315.835 552.594 140.15 328.682 140.15 326.046 317.903 552.594 315.835 552.594" class="cls-158"/><polygon points="313.767 552.594 140.15 331.318 140.15 328.682 315.835 552.594 313.767 552.594" class="cls-159"/><polygon points="311.699 552.594 140.15 333.954 140.15 331.318 313.767 552.594 311.699 552.594" class="cls-160"/><polygon points="309.631 552.594 140.15 336.59 140.15 333.954 311.699 552.594 309.631 552.594" class="cls-161"/><polygon points="307.562 552.594 140.15 339.226 140.15 336.59 309.631 552.594 307.562 552.594" class="cls-162"/><polygon points="305.494 552.594 140.15 341.862 140.15 339.226 307.562 552.594 305.494 552.594" class="cls-163"/><polygon points="303.426 552.594 140.15 344.497 140.15 341.862 305.494 552.594 303.426 552.594" class="cls-164"/><polygon points="301.358 552.594 140.15 347.133 140.15 344.497 303.426 552.594 301.358 552.594" class="cls-165"/><polygon points="299.29 552.594 140.15 349.769 140.15 347.133 301.358 552.594 299.29 552.594" class="cls-166"/><polygon points="297.222 552.594 140.15 352.405 140.15 349.769 299.29 552.594 297.222 552.594" class="cls-167"/><polygon points="295.153 552.594 140.15 355.041 140.15 352.405 297.222 552.594 295.153 552.594" class="cls-168"/><polygon points="293.085 552.594 140.15 357.677 140.15 355.041 295.153 552.594 293.085 552.594" class="cls-169"/><polygon points="291.017 552.594 140.15 360.313 140.15 357.677 293.085 552.594 291.017 552.594" class="cls-170"/><polygon points="288.949 552.594 140.15 362.949 140.15 360.313 291.017 552.594 288.949 552.594" class="cls-171"/><polygon points="286.881 552.594 140.15 365.585 140.15 362.949 288.949 552.594 286.881 552.594" class="cls-172"/><polygon points="284.813 552.594 140.15 368.22 140.15 365.585 286.881 552.594 284.813 552.594" class="cls-173"/><polygon points="282.745 552.594 140.15 370.856 140.15 368.22 284.813 552.594 282.745 552.594" class="cls-174"/><polygon points="280.676 552.594 140.15 373.492 140.15 370.856 282.745 552.594 280.676 552.594" class="cls-175"/><polygon points="278.608 552.594 140.15 376.128 140.15 373.492 280.676 552.594 278.608 552.594" class="cls-176"/><polygon points="276.54 552.594 140.15 378.764 140.15 376.128 278.608 552.594 276.54 552.594" class="cls-177"/><polygon points="274.472 552.594 140.15 381.4 140.15 378.764 276.54 552.594 274.472 552.594" class="cls-178"/><polygon points="272.404 552.594 140.15 384.036 140.15 381.4 274.472 552.594 272.404 552.594" class="cls-179"/><polygon points="270.336 552.594 140.15 386.672 140.15 384.036 272.404 552.594 270.336 552.594" class="cls-180"/><polygon points="268.268 552.594 140.15 389.307 140.15 386.672 270.336 552.594 268.268 552.594" class="cls-181"/><polygon points="266.199 552.594 140.15 391.943 140.15 389.307 268.268 552.594 266.199 552.594" class="cls-182"/><polygon points="264.131 552.594 140.15 394.579 140.15 391.943 266.199 552.594 264.131 552.594" class="cls-183"/><polygon points="262.063 552.594 140.15 397.215 140.15 394.579 264.131 552.594 262.063 552.594" class="cls-184"/><polygon points="259.995 552.594 140.15 399.851 140.15 397.215 262.063 552.594 259.995 552.594" class="cls-185"/><polygon points="257.927 552.594 140.15 402.487 140.15 399.851 259.995 552.594 257.927 552.594" class="cls-186"/><polygon points="255.859 552.594 140.15 405.123 140.15 402.487 257.927 552.594 255.859 552.594" class="cls-187"/><polygon points="253.79 552.594 140.15 407.759 140.15 405.123 255.859 552.594 253.79 552.594" class="cls-188"/><polygon points="251.722 552.594 140.15 410.394 140.15 407.759 253.79 552.594 251.722 552.594" class="cls-189"/><polygon points="140.15 410.394 251.722 552.594 140.15 552.594 140.15 410.394" class="cls-189"/></g><path d="M36.434,650.88379a17.43952,17.43952,0,0,0-3.88509,6.15107,37.85212,37.85212,0,0,0-2.07169,7.89894,51.01829,51.01829,0,0,0-.64764,7.70483,15.18936,15.18936,0,0,0,1.48919,7.18673q1.49,2.78418,5.37429,2.78409a7.20353,7.20353,0,0,0,4.14337-1.23013,9.97946,9.97946,0,0,0,2.97839-3.17249,16.56613,16.56613,0,0,0,1.8134-4.53235,35.874,35.874,0,0,0,.90594-5.30914l19.942,10.48894a27.972,27.972,0,0,1-4.01385,7.44578,31.2223,31.2223,0,0,1-6.79833,6.669,36.6437,36.6437,0,0,1-9.32375,4.85578,33.77286,33.77286,0,0,1-11.45983,1.87778A29.60033,29.60033,0,0,1,23.485,697.566a28.37658,28.37658,0,0,1-9.00031-5.82725A25.42383,25.42383,0,0,1,8.593,682.998a28.37976,28.37976,0,0,1-2.07169-10.87733,49.82622,49.82622,0,0,1,2.46027-15.73349,37.4113,37.4113,0,0,1,7.31645-13.014,35.03692,35.03692,0,0,1,11.84841-8.80544,38.1502,38.1502,0,0,1,16.18646-3.23726,33.581,33.581,0,0,1,10.29483,1.55377,26.01715,26.01715,0,0,1,8.41705,4.40282,22.37719,22.37719,0,0,1,5.69772,6.73356,17.44455,17.44455,0,0,1,2.13684,8.54659v.12952L48.218,662.53829q.25866-.90651.51811-1.94255a12.65,12.65,0,0,0,.38782-2.07188,23.52346,23.52346,0,0,0,.12953-2.5898,8.484,8.484,0,0,0-1.68311-5.30914,6.10582,6.10582,0,0,0-5.1796-2.20141A8.11374,8.11374,0,0,0,36.434,650.88379Z" class="cls-2"/><path d="M107.65551,698.14866l7.89893-37.29386a23.06834,23.06834,0,0,0,.64765-5.05027,6.337,6.337,0,0,0-1.23014-3.94947q-1.23014-1.61873-4.33806-1.61872a7.54732,7.54732,0,0,0-3.94947.97127,9.32252,9.32252,0,0,0-2.78371,2.5898,13.88679,13.88679,0,0,0-1.87778,3.75537,44.76483,44.76483,0,0,0-1.23014,4.46739l-7.63988,36.12849h-23.309l19.942-93.75257h23.30823l-4.92055,22.79069q-.64727,3.10782-1.4892,6.02135-.84155,2.91353-1.48919,5.115-.77716,2.5896-1.6831,4.92074h.51811a40.34091,40.34091,0,0,1,8.417-8.28753,19.52339,19.52339,0,0,1,11.91279-3.62584q7.38083,0,11.84841,4.72645t4.46758,12.496q0,1.81273-.19391,3.94947a31.37413,31.37413,0,0,1-.712,4.33806l-8.80564,41.30809Z" class="cls-2"/><path d="M185.742,649.45936a8.312,8.312,0,0,0-4.4032-1.03585,11.16192,11.16192,0,0,0-7.38083,2.58981,16.41917,16.41917,0,0,0-4.791,7.3812l-18.90656-10.3594a35.61079,35.61079,0,0,1,13.20884-11.91336q8.67534-4.79123,20.848-4.79122a33.35571,33.35571,0,0,1,9.45328,1.2949,23.42567,23.42567,0,0,1,7.70426,3.81995,18.32174,18.32174,0,0,1,5.24475,6.34517,19.31206,19.31206,0,0,1,1.94217,8.87021,26.90407,26.90407,0,0,1-.25906,3.6906q-.25868,1.87769-.64688,3.6906l-4.27367,20.33023q-.77718,3.8847-1.68311,8.02866a33.29991,33.29991,0,0,0-.90669,6.86309,13.85848,13.85848,0,0,0,.25905,2.71933q.12992.64726.25906,1.16538H184.44674a11.89115,11.89115,0,0,1-1.81264-3.62584,13.06261,13.06261,0,0,1-.64764-3.88471v-.25906h-.51811a17.48277,17.48277,0,0,1-2.52466,3.23745,20.30477,20.30477,0,0,1-3.75556,3.043,19.96038,19.96038,0,0,1-10.81294,3.04315,20.76084,20.76084,0,0,1-7.70427-1.35966,16.28226,16.28226,0,0,1-5.76286-3.75537,17.43476,17.43476,0,0,1-3.62527-5.50343,16.98874,16.98874,0,0,1-1.29528-6.604,17.87622,17.87622,0,0,1,7.63988-15.47444,31.05907,31.05907,0,0,1,7.89894-4.079,78.11917,78.11917,0,0,1,9.06469-2.5898q2.71895-.64755,5.63334-1.23033a45.33809,45.33809,0,0,0,5.43866-1.42424,15.45405,15.45405,0,0,0,4.14338-2.00712,3.74934,3.74934,0,0,0-.06438-6.21583Zm-4.66226,21.30169a23.39944,23.39944,0,0,1-5.05008,1.87758,26.20628,26.20628,0,0,0-5.37351,2.00712,4.45375,4.45375,0,0,0-2.3959,4.338,3.69879,3.69879,0,0,0,1.35967,3.043,5.69935,5.69935,0,0,0,3.69041,1.1008,9.52409,9.52409,0,0,0,6.28022-2.33094q2.78448-2.33094,3.81994-7.25149l1.16575-5.30933A14.56161,14.56161,0,0,1,181.07976,670.76105Z" class="cls-2"/><path d="M216.75681,656.19311a38.36955,38.36955,0,0,1,7.38159-12.9492,34.159,34.159,0,0,1,11.91279-8.74088,39.2766,39.2766,0,0,1,16.25161-3.17249,32.32657,32.32657,0,0,1,11.525,2.00712,27.79091,27.79091,0,0,1,9.2586,5.69772,25.92364,25.92364,0,0,1,6.15069,8.80545,28.36718,28.36718,0,0,1,2.202,11.33048,47.91193,47.91193,0,0,1-2.52543,15.7335,38.48909,38.48909,0,0,1-7.38082,12.88444,34.01552,34.01552,0,0,1-11.9787,8.74068,39.3833,39.3833,0,0,1-16.18647,3.17268,32.337,32.337,0,0,1-11.525-2.00711,27.80505,27.80505,0,0,1-9.25861-5.69772,25.93814,25.93814,0,0,1-6.15069-8.80545,28.36877,28.36877,0,0,1-2.20121-11.33068A48.08182,48.08182,0,0,1,216.75681,656.19311Zm22.53183,23.63225a6.151,6.151,0,0,0,5.63334,2.78409,8.32838,8.32838,0,0,0,6.02116-2.46027,18.46378,18.46378,0,0,0,4.079-6.15088,38.12219,38.12219,0,0,0,2.33075-7.89913,42.703,42.703,0,0,0,.77717-7.70465,12.95216,12.95216,0,0,0-1.81263-7.18691,6.30829,6.30829,0,0,0-5.69772-2.7841,8.33133,8.33133,0,0,0-6.02193,2.46028,18.46447,18.46447,0,0,0-4.079,6.15107,35.58484,35.58484,0,0,0-2.26559,7.89894,46.43765,46.43765,0,0,0-.71279,7.70483A13.32908,13.32908,0,0,0,239.28864,679.82536Z" class="cls-2"/><path d="M305.657,680.99092a12.44743,12.44743,0,0,0,8.02923,2.39551,9.31061,9.31061,0,0,0,4.6615-1.10061,3.46718,3.46718,0,0,0,1.94216-3.17249,3.013,3.013,0,0,0-1.23014-2.33093,12.54729,12.54729,0,0,0-3.23745-1.87759,39.46734,39.46734,0,0,0-4.532-1.554q-2.52465-.71222-5.11523-1.4892a44.95742,44.95742,0,0,1-6.0863-2.26617,19.19954,19.19954,0,0,1-5.244-3.49631,17.33211,17.33211,0,0,1-3.69041-5.05008,15.94891,15.94891,0,0,1-1.42481-7.05738,18.379,18.379,0,0,1,2.52542-9.64719,23.59781,23.59781,0,0,1,6.60365-7.12216,29.87465,29.87465,0,0,1,9.3889-4.40262,40.55629,40.55629,0,0,1,11.00686-1.4892q11.39428,0,18.64673,4.079a34.68307,34.68307,0,0,1,11.784,10.683l-19.42391,9.45308a11.7435,11.7435,0,0,0-3.88509-5.56819,11.4875,11.4875,0,0,0-7.51035-2.33094,9.022,9.022,0,0,0-4.20853.97128,3.116,3.116,0,0,0-1.87778,2.91362,2.28384,2.28384,0,0,0,1.165,1.94235,12.84946,12.84946,0,0,0,3.23745,1.42443q2.07169.64726,4.85617,1.489t6.15069,2.0073a63.17818,63.17818,0,0,1,5.76286,2.58981,20.30442,20.30442,0,0,1,4.92055,3.49631,15.78587,15.78587,0,0,1,3.43136,4.9855,16.95344,16.95344,0,0,1,1.29528,6.92786,18.70833,18.70833,0,0,1-2.5898,9.77653,24.21648,24.21648,0,0,1-6.73395,7.31644,31.82625,31.82625,0,0,1-9.582,4.59692,38.39707,38.39707,0,0,1-11.00686,1.61872q-12.04384,0-20.20107-4.079a26.75788,26.75788,0,0,1-12.17262-11.8486l19.683-9.58243A15.65263,15.65263,0,0,0,305.657,680.99092Z" class="cls-2"/><path d="M415.46807,698.14866H390.86456l-8.158-22.66117-8.9344,9.194-2.71933,13.46713h-23.309l19.942-93.75257h23.30823l-8.158,38.45923q-.64727,3.10782-1.48919,6.02135-.84156,2.91353-1.4892,5.115-.776,2.58988-1.55357,4.92074h.51811l3.10792-4.14377q1.42443-1.813,2.97839-3.82013,1.55319-2.007,3.23668-3.81994l12.94978-14.2443h27.32284l-27.45237,25.89861Z" class="cls-2"/><path d="M456.65047,632.88431l-7.89894,37.29386a23.0682,23.0682,0,0,0-.64764,5.05027,6.854,6.854,0,0,0,1.1006,3.94947q1.10023,1.61871,4.20853,1.61872a7.5455,7.5455,0,0,0,3.94947-.97127,8.63359,8.63359,0,0,0,2.71933-2.58981,13.69693,13.69693,0,0,0,1.74825-3.75517q.64727-2.13664,1.165-4.46759l7.64065-36.12848h23.30823l-13.85572,65.26435H456.78l3.49574-10.35941h-.51735a41.9049,41.9049,0,0,1-8.28752,8.28752,18.96444,18.96444,0,0,1-11.784,3.62584q-7.38082,0-11.71888-4.72644-4.33881-4.72654-4.338-12.496,0-1.813.19391-3.94966a31.37129,31.37129,0,0,1,.712-4.33787l8.80564-41.30828Z" class="cls-2"/><path d="M531.111,626.02122q-.64727,2.71952-1.424,5.633-.77717,2.91354-1.55434,5.3739-.90593,2.84886-1.81263,5.56819h.51811q1.55319-1.94235,3.30183-3.94946a25.78192,25.78192,0,0,1,3.88432-3.62584,20.24653,20.24653,0,0,1,4.72664-2.65457,15.21122,15.21122,0,0,1,5.69772-1.03585,16.5775,16.5775,0,0,1,9.0647,2.46028,21.60677,21.60677,0,0,1,6.47489,6.34517,28.03686,28.03686,0,0,1,3.81994,8.74068,39.16413,39.16413,0,0,1,1.23014,9.64719,51.74318,51.74318,0,0,1-2.13684,14.56793,46.35729,46.35729,0,0,1-6.15069,13.20827,34.32221,34.32221,0,0,1-9.84186,9.64719,23.85,23.85,0,0,1-13.20808,3.75536q-6.60364,0-10.61827-3.75536a18.92647,18.92647,0,0,1-5.43866-8.80545h-.51811L514.795,698.14866H492.52219l19.942-93.75257h23.30823Zm-2.71933,25.63955a16.96708,16.96708,0,0,0-4.01462,5.50343,29.34235,29.34235,0,0,0-2.2656,7.05738,37.05,37.05,0,0,0-.712,6.8631,14.58252,14.58252,0,0,0,1.74748,7.5753,6.07166,6.07166,0,0,0,5.63334,2.91363,8.62,8.62,0,0,0,5.95678-2.20141,16.954,16.954,0,0,0,4.01385-5.50343,29.3439,29.3439,0,0,0,2.26637-7.05739,37.11445,37.11445,0,0,0,.712-6.86309A14.57535,14.57535,0,0,0,539.981,652.373a6.06962,6.06962,0,0,0-5.63257-2.91362A8.62,8.62,0,0,0,528.39162,651.66077Z" class="cls-2"/><path d="M591.71419,673.28608q0,10.10035,8.54658,10.10035a10.76249,10.76249,0,0,0,6.993-2.20122,13.72639,13.72639,0,0,0,4.14338-5.95677l18.64674,10.748a30.06353,30.06353,0,0,1-13.27246,10.3594,44.859,44.859,0,0,1-17.1583,3.36678,34.48538,34.48538,0,0,1-11.91279-1.94235,26.10545,26.10545,0,0,1-9.12908-5.56819,23.91593,23.91593,0,0,1-5.82725-8.74087,31.52247,31.52247,0,0,1-2.00731-11.58955,48.08182,48.08182,0,0,1,2.52466-15.66854,38.36938,38.36938,0,0,1,7.38159-12.9492,34.159,34.159,0,0,1,11.91279-8.74088,39.2766,39.2766,0,0,1,16.25161-3.17249,33.00919,33.00919,0,0,1,10.7478,1.6833A22.82059,22.82059,0,0,1,633.476,645.70418a24.67567,24.67567,0,0,1,2.00654,10.10035,28.7374,28.7374,0,0,1-1.29452,8.74087,63.8956,63.8956,0,0,1-2.84886,7.44578h-39.625Zm7.83455-22.92021a23.5881,23.5881,0,0,0-4.72664,7.12215h19.8125a2.12137,2.12137,0,0,1,.12953-.64745,6.90768,6.90768,0,0,1,.06438-.777,9.36,9.36,0,0,0,.06514-1.16538,7.43615,7.43615,0,0,0-2.0073-5.50342,7.9855,7.9855,0,0,0-5.89163-2.00712A9.96763,9.96763,0,0,0,599.54874,650.36587Z" class="cls-2"/><path d="M320.83084,481.90027c-.63375,0-1.26692.00039-1.90709-.00843-83.70683-1.1646-125.7233-52.29885-143.31867-82.676a6.69254,6.69254,0,1,0-11.58227,6.709c19.01578,32.83011,64.403,88.09393,154.71469,89.35051.70034.01,1.39694.01035,2.09334.01035Z" class="cls-190"/><path d="M281.60939,378.07131c-.00422.06707-.0092.13375-.01284.20081-.04024.67792-.07032,1.35545-.07981,2.03337A41.55572,41.55572,0,0,0,316.3144,421.8324c-11.58226,3.06078-24.81275,2.29779-38.63111-2.3982-28.98295-9.85144-46.02227-33.23938-45.62966-61.2639a71.41,71.41,0,0,1,1.04791-11.144,77.26315,77.26315,0,0,1,30.21827-48.39767,117.29988,117.29988,0,0,1-12.89824-6.7305,89.90909,89.90909,0,0,0-30.51009,52.85222,82.13944,82.13944,0,0,0-1.19028,12.81221,76.5362,76.5362,0,0,0,9.68954,38.78075c9.39733,16.59114,24.9462,28.95766,44.96592,35.76213,16.82089,5.71764,33.0884,6.46377,47.45418,2.38784V408.89986a28.10286,28.10286,0,0,1,0-56.03793V328.7041a62.30451,62.30451,0,0,0-14.7307,7.68548C291.83811,346.456,282.61122,362.25657,281.60939,378.07131Z" class="cls-190"/><path d="M201.23,403.875a6.66366,6.66366,0,0,0,1.33643,4.10144c1.40953,1.881,2.90486,3.75047,4.446,5.55561a6.69236,6.69236,0,0,0,10.18012-8.69c-1.35734-1.59044-2.67444-3.23523-3.91442-4.891A6.6925,6.6925,0,0,0,201.23,403.875Z" class="cls-190"/><path d="M225.07938,427.14233a6.684,6.684,0,0,0,2.76646,5.51886c1.87791,1.36011,3.83647,2.69922,5.81992,3.97911a6.69254,6.69254,0,0,0,7.25661-11.24731c-1.78311-1.15063-3.54074-2.35174-5.22518-3.57257a6.69242,6.69242,0,0,0-10.61781,5.32191Z" class="cls-190"/><path d="M210.73117,288.31882c1.14266-1.73905,2.35605-3.46372,3.606-5.125a6.69256,6.69256,0,0,0-10.6948-8.04877c-1.42115,1.88846-2.80045,3.84843-4.099,5.82426a6.69293,6.69293,0,0,0,11.18776,7.3495Z" class="cls-190"/><path d="M201.071,378.21842c-.76639-1.92221-1.4778-3.89857-2.11561-5.87392a6.69256,6.69256,0,1,0-12.73749,4.11311c.729,2.257,1.5422,4.51661,2.41786,6.71479a6.69285,6.69285,0,0,0,12.43524-4.954Z" class="cls-190"/><path d="M197.89709,316.78975c.55074-2.01234,1.17117-4.02974,1.84309-5.99621a6.69271,6.69271,0,0,0-12.66549-4.33069c-.76192,2.22893-1.46506,4.51424-2.08846,6.794a6.69275,6.69275,0,1,0,12.91086,3.53292Z" class="cls-190"/><path d="M194.48431,347.81136c-.102-2.0482-.13862-4.13163-.10995-6.19206l.001-.07094a6.69255,6.69255,0,0,0-13.3838-.18622l-.001.07093c-.03261,2.3435.00937,4.71347.12555,7.04365a6.69237,6.69237,0,1,0,13.36819-.66536Z" class="cls-190"/><g class="cls-191"><polygon points="499.082 294.283 319.893 403.936 319.893 232.049 499.082 232.049 499.082 294.283" class="cls-192"/><polygon points="499.082 295.434 319.893 405.087 319.893 403.936 499.082 294.283 499.082 295.434" class="cls-192"/><polygon points="499.082 296.586 319.893 406.239 319.893 405.087 499.082 295.434 499.082 296.586" class="cls-193"/><polygon points="499.082 297.738 319.893 407.391 319.893 406.239 499.082 296.586 499.082 297.738" class="cls-194"/><polygon points="499.082 298.889 319.893 408.542 319.893 407.391 499.082 297.738 499.082 298.889" class="cls-195"/><polygon points="499.082 300.041 319.893 409.694 319.893 408.542 499.082 298.889 499.082 300.041" class="cls-196"/><polygon points="499.082 301.192 319.893 410.845 319.893 409.694 499.082 300.041 499.082 301.192" class="cls-197"/><polygon points="499.082 302.344 319.893 411.997 319.893 410.845 499.082 301.192 499.082 302.344" class="cls-198"/><polygon points="499.082 303.496 319.893 413.149 319.893 411.997 499.082 302.344 499.082 303.496" class="cls-199"/><polygon points="499.082 304.647 319.893 414.3 319.893 413.149 499.082 303.496 499.082 304.647" class="cls-200"/><polygon points="499.082 305.799 319.893 415.452 319.893 414.3 499.082 304.647 499.082 305.799" class="cls-201"/><polygon points="499.082 306.951 319.893 416.604 319.893 415.452 499.082 305.799 499.082 306.951" class="cls-202"/><polygon points="499.082 308.102 319.893 417.755 319.893 416.604 499.082 306.951 499.082 308.102" class="cls-203"/><polygon points="499.082 309.254 319.893 418.907 319.893 417.755 499.082 308.102 499.082 309.254" class="cls-204"/><polygon points="499.082 310.405 319.893 420.058 319.893 418.907 499.082 309.254 499.082 310.405" class="cls-205"/><polygon points="499.082 311.557 319.893 421.21 319.893 420.058 499.082 310.405 499.082 311.557" class="cls-206"/><polygon points="499.082 312.709 319.893 422.362 319.893 421.21 499.082 311.557 499.082 312.709" class="cls-207"/><polygon points="499.082 313.86 319.893 423.513 319.893 422.362 499.082 312.709 499.082 313.86" class="cls-208"/><polygon points="499.082 315.012 319.893 424.665 319.893 423.513 499.082 313.86 499.082 315.012" class="cls-209"/><polygon points="499.082 316.163 319.893 425.816 319.893 424.665 499.082 315.012 499.082 316.163" class="cls-210"/><polygon points="499.082 317.315 319.893 426.968 319.893 425.816 499.082 316.163 499.082 317.315" class="cls-211"/><polygon points="499.082 318.467 319.893 428.12 319.893 426.968 499.082 317.315 499.082 318.467" class="cls-212"/><polygon points="499.082 319.618 319.893 429.271 319.893 428.12 499.082 318.467 499.082 319.618" class="cls-213"/><polygon points="499.082 320.77 319.893 430.423 319.893 429.271 499.082 319.618 499.082 320.77" class="cls-214"/><polygon points="499.082 321.922 319.893 431.575 319.893 430.423 499.082 320.77 499.082 321.922" class="cls-215"/><polygon points="499.082 323.073 319.893 432.726 319.893 431.575 499.082 321.922 499.082 323.073" class="cls-216"/><polygon points="499.082 324.225 319.893 433.878 319.893 432.726 499.082 323.073 499.082 324.225" class="cls-217"/><polygon points="499.082 325.376 319.893 435.029 319.893 433.878 499.082 324.225 499.082 325.376" class="cls-218"/><polygon points="499.082 326.528 319.893 436.181 319.893 435.029 499.082 325.376 499.082 326.528" class="cls-219"/><polygon points="499.082 327.68 319.893 437.333 319.893 436.181 499.082 326.528 499.082 327.68" class="cls-220"/><polygon points="499.082 328.831 319.893 438.484 319.893 437.333 499.082 327.68 499.082 328.831" class="cls-221"/><polygon points="499.082 329.983 319.893 439.636 319.893 438.484 499.082 328.831 499.082 329.983" class="cls-222"/><polygon points="499.082 331.134 319.893 440.787 319.893 439.636 499.082 329.983 499.082 331.134" class="cls-223"/><polygon points="499.082 332.286 319.893 441.939 319.893 440.787 499.082 331.134 499.082 332.286" class="cls-224"/><polygon points="499.082 333.438 319.893 443.091 319.893 441.939 499.082 332.286 499.082 333.438" class="cls-225"/><polygon points="499.082 334.589 319.893 444.242 319.893 443.091 499.082 333.438 499.082 334.589" class="cls-226"/><polygon points="499.082 335.741 319.893 445.394 319.893 444.242 499.082 334.589 499.082 335.741" class="cls-227"/><polygon points="499.082 336.893 319.893 446.546 319.893 445.394 499.082 335.741 499.082 336.893" class="cls-228"/><polygon points="499.082 338.044 319.893 447.697 319.893 446.546 499.082 336.893 499.082 338.044" class="cls-229"/><polygon points="499.082 339.196 319.893 448.849 319.893 447.697 499.082 338.044 499.082 339.196" class="cls-230"/><polygon points="499.082 340.347 319.893 450 319.893 448.849 499.082 339.196 499.082 340.347" class="cls-231"/><polygon points="499.082 341.499 319.893 451.152 319.893 450 499.082 340.347 499.082 341.499" class="cls-232"/><polygon points="499.082 342.651 319.893 452.304 319.893 451.152 499.082 341.499 499.082 342.651" class="cls-233"/><polygon points="499.082 343.802 319.893 453.455 319.893 452.304 499.082 342.651 499.082 343.802" class="cls-234"/><polygon points="499.082 344.954 319.893 454.607 319.893 453.455 499.082 343.802 499.082 344.954" class="cls-235"/><polygon points="499.082 346.105 319.893 455.758 319.893 454.607 499.082 344.954 499.082 346.105" class="cls-236"/><polygon points="499.082 347.257 319.893 456.91 319.893 455.758 499.082 346.105 499.082 347.257" class="cls-237"/><polygon points="499.082 348.409 319.893 458.062 319.893 456.91 499.082 347.257 499.082 348.409" class="cls-238"/><polygon points="499.082 349.56 319.893 459.213 319.893 458.062 499.082 348.409 499.082 349.56" class="cls-239"/><polygon points="499.082 350.712 319.893 460.365 319.893 459.213 499.082 349.56 499.082 350.712" class="cls-240"/><polygon points="499.082 351.864 319.893 461.517 319.893 460.365 499.082 350.712 499.082 351.864" class="cls-241"/><polygon points="499.082 353.015 319.893 462.668 319.893 461.517 499.082 351.864 499.082 353.015" class="cls-242"/><polygon points="499.082 354.167 319.893 463.82 319.893 462.668 499.082 353.015 499.082 354.167" class="cls-243"/><polygon points="499.082 355.318 319.893 464.971 319.893 463.82 499.082 354.167 499.082 355.318" class="cls-244"/><polygon points="499.082 356.47 319.893 466.123 319.893 464.971 499.082 355.318 499.082 356.47" class="cls-245"/><polygon points="499.082 357.622 319.893 467.275 319.893 466.123 499.082 356.47 499.082 357.622" class="cls-246"/><polygon points="499.082 358.773 319.893 468.426 319.893 467.275 499.082 357.622 499.082 358.773" class="cls-247"/><polygon points="499.082 359.925 319.893 469.578 319.893 468.426 499.082 358.773 499.082 359.925" class="cls-248"/><polygon points="499.082 361.076 319.893 470.729 319.893 469.578 499.082 359.925 499.082 361.076" class="cls-249"/><polygon points="499.082 362.228 319.893 471.881 319.893 470.729 499.082 361.076 499.082 362.228" class="cls-250"/><polygon points="499.082 363.38 319.893 473.033 319.893 471.881 499.082 362.228 499.082 363.38" class="cls-251"/><polygon points="499.082 364.531 319.893 474.184 319.893 473.033 499.082 363.38 499.082 364.531" class="cls-252"/><polygon points="499.082 365.683 319.893 475.336 319.893 474.184 499.082 364.531 499.082 365.683" class="cls-253"/><polygon points="499.082 366.835 319.893 476.488 319.893 475.336 499.082 365.683 499.082 366.835" class="cls-254"/><polygon points="499.082 367.986 319.893 477.639 319.893 476.488 499.082 366.835 499.082 367.986" class="cls-255"/><polygon points="499.082 369.138 319.893 478.791 319.893 477.639 499.082 367.986 499.082 369.138" class="cls-256"/><polygon points="499.082 370.289 319.893 479.942 319.893 478.791 499.082 369.138 499.082 370.289" class="cls-257"/><polygon points="499.082 371.441 319.893 481.094 319.893 479.942 499.082 370.289 499.082 371.441" class="cls-258"/><polygon points="499.082 372.593 319.893 482.246 319.893 481.094 499.082 371.441 499.082 372.593" class="cls-259"/><polygon points="499.082 373.744 319.893 483.397 319.893 482.246 499.082 372.593 499.082 373.744" class="cls-260"/><polygon points="499.082 374.896 319.893 484.549 319.893 483.397 499.082 373.744 499.082 374.896" class="cls-261"/><polygon points="499.082 376.047 319.893 485.7 319.893 484.549 499.082 374.896 499.082 376.047" class="cls-262"/><polygon points="499.082 377.199 319.893 486.852 319.893 485.7 499.082 376.047 499.082 377.199" class="cls-263"/><polygon points="499.082 378.351 319.893 488.004 319.893 486.852 499.082 377.199 499.082 378.351" class="cls-264"/><polygon points="499.082 379.502 319.893 489.155 319.893 488.004 499.082 378.351 499.082 379.502" class="cls-265"/><polygon points="499.082 380.654 319.893 490.307 319.893 489.155 499.082 379.502 499.082 380.654" class="cls-266"/><polygon points="499.082 381.806 319.893 491.459 319.893 490.307 499.082 380.654 499.082 381.806" class="cls-267"/><polygon points="499.082 382.957 319.893 492.61 319.893 491.459 499.082 381.806 499.082 382.957" class="cls-268"/><polygon points="499.082 384.109 319.893 493.762 319.893 492.61 499.082 382.957 499.082 384.109" class="cls-269"/><polygon points="499.082 385.26 319.893 494.913 319.893 493.762 499.082 384.109 499.082 385.26" class="cls-270"/><polygon points="499.082 386.412 319.893 496.065 319.893 494.913 499.082 385.26 499.082 386.412" class="cls-271"/><polygon points="499.082 387.564 319.893 497.217 319.893 496.065 499.082 386.412 499.082 387.564" class="cls-272"/><polygon points="499.082 388.715 319.893 498.368 319.893 497.217 499.082 387.564 499.082 388.715" class="cls-273"/><polygon points="499.082 389.867 319.893 499.52 319.893 498.368 499.082 388.715 499.082 389.867" class="cls-274"/><polygon points="499.082 391.018 319.893 500.671 319.893 499.52 499.082 389.867 499.082 391.018" class="cls-275"/><polygon points="499.082 392.17 319.893 501.823 319.893 500.671 499.082 391.018 499.082 392.17" class="cls-276"/><polygon points="499.082 393.322 319.893 502.975 319.893 501.823 499.082 392.17 499.082 393.322" class="cls-277"/><polygon points="499.082 394.473 319.893 504.126 319.893 502.975 499.082 393.322 499.082 394.473" class="cls-278"/><polygon points="499.082 395.625 319.893 505.278 319.893 504.126 499.082 394.473 499.082 395.625" class="cls-279"/><polygon points="499.082 396.777 319.893 506.43 319.893 505.278 499.082 395.625 499.082 396.777" class="cls-280"/><polygon points="499.082 397.928 319.893 507.581 319.893 506.43 499.082 396.777 499.082 397.928" class="cls-281"/><polygon points="499.082 399.08 319.893 508.733 319.893 507.581 499.082 397.928 499.082 399.08" class="cls-282"/><polygon points="499.082 400.231 319.893 509.884 319.893 508.733 499.082 399.08 499.082 400.231" class="cls-283"/><polygon points="499.082 401.383 319.893 511.036 319.893 509.884 499.082 400.231 499.082 401.383" class="cls-284"/><polygon points="499.082 402.535 319.893 512.188 319.893 511.036 499.082 401.383 499.082 402.535" class="cls-285"/><polygon points="499.082 403.686 319.893 513.339 319.893 512.188 499.082 402.535 499.082 403.686" class="cls-286"/><polygon points="499.082 404.838 319.893 514.491 319.893 513.339 499.082 403.686 499.082 404.838" class="cls-287"/><polygon points="499.082 405.989 319.893 515.642 319.893 514.491 499.082 404.838 499.082 405.989" class="cls-288"/><polygon points="499.082 407.141 319.893 516.794 319.893 515.642 499.082 405.989 499.082 407.141" class="cls-289"/><polygon points="499.082 408.293 319.893 517.946 319.893 516.794 499.082 407.141 499.082 408.293" class="cls-290"/><polygon points="499.082 409.444 319.893 519.097 319.893 517.946 499.082 408.293 499.082 409.444" class="cls-291"/><polygon points="499.082 410.596 319.893 520.249 319.893 519.097 499.082 409.444 499.082 410.596" class="cls-292"/><polygon points="499.082 411.748 319.893 521.401 319.893 520.249 499.082 410.596 499.082 411.748" class="cls-293"/><polygon points="499.082 412.899 319.893 522.552 319.893 521.401 499.082 411.748 499.082 412.899" class="cls-294"/><polygon points="499.082 414.051 319.893 523.704 319.893 522.552 499.082 412.899 499.082 414.051" class="cls-295"/><polygon points="499.082 415.202 319.893 524.855 319.893 523.704 499.082 414.051 499.082 415.202" class="cls-296"/><polygon points="499.082 416.354 319.893 526.007 319.893 524.855 499.082 415.202 499.082 416.354" class="cls-297"/><polygon points="499.082 417.506 319.893 527.159 319.893 526.007 499.082 416.354 499.082 417.506" class="cls-298"/><polygon points="499.082 418.657 319.893 528.31 319.893 527.159 499.082 417.506 499.082 418.657" class="cls-299"/><polygon points="499.082 419.809 319.893 529.462 319.893 528.31 499.082 418.657 499.082 419.809" class="cls-300"/><polygon points="499.082 420.96 319.893 530.613 319.893 529.462 499.082 419.809 499.082 420.96" class="cls-301"/><polygon points="499.082 422.112 319.893 531.765 319.893 530.613 499.082 420.96 499.082 422.112" class="cls-302"/><polygon points="499.082 423.264 319.893 532.917 319.893 531.765 499.082 422.112 499.082 423.264" class="cls-303"/><polygon points="499.082 424.415 319.893 534.068 319.893 532.917 499.082 423.264 499.082 424.415" class="cls-304"/><polygon points="499.082 425.567 319.893 535.22 319.893 534.068 499.082 424.415 499.082 425.567" class="cls-305"/><polygon points="499.082 426.719 319.893 536.372 319.893 535.22 499.082 425.567 499.082 426.719" class="cls-306"/><polygon points="499.082 427.87 319.893 537.523 319.893 536.372 499.082 426.719 499.082 427.87" class="cls-307"/><polygon points="499.082 429.022 319.893 538.675 319.893 537.523 499.082 427.87 499.082 429.022" class="cls-308"/><polygon points="499.082 430.173 319.893 539.826 319.893 538.675 499.082 429.022 499.082 430.173" class="cls-309"/><polygon points="499.082 431.325 319.893 540.978 319.893 539.826 499.082 430.173 499.082 431.325" class="cls-310"/><polygon points="499.082 432.477 319.893 542.13 319.893 540.978 499.082 431.325 499.082 432.477" class="cls-311"/><polygon points="499.082 433.628 319.893 543.281 319.893 542.13 499.082 432.477 499.082 433.628" class="cls-312"/><polygon points="499.082 434.78 319.893 544.433 319.893 543.281 499.082 433.628 499.082 434.78" class="cls-313"/><polygon points="499.082 435.931 319.893 545.584 319.893 544.433 499.082 434.78 499.082 435.931" class="cls-314"/><polygon points="499.082 437.083 319.893 546.736 319.893 545.584 499.082 435.931 499.082 437.083" class="cls-315"/><polygon points="499.082 438.235 319.893 547.888 319.893 546.736 499.082 437.083 499.082 438.235" class="cls-316"/><polygon points="499.082 439.386 319.893 549.039 319.893 547.888 499.082 438.235 499.082 439.386" class="cls-317"/><polygon points="499.082 440.538 319.893 550.191 319.893 549.039 499.082 439.386 499.082 440.538" class="cls-318"/><polygon points="499.082 441.69 319.893 551.343 319.893 550.191 499.082 440.538 499.082 441.69" class="cls-319"/><polygon points="499.082 442.841 319.893 552.494 319.893 551.343 499.082 441.69 499.082 442.841" class="cls-320"/><polygon points="499.082 443.993 321.611 552.594 319.893 552.594 319.893 552.494 499.082 442.841 499.082 443.993" class="cls-321"/><polygon points="499.082 445.144 323.493 552.594 321.611 552.594 499.082 443.993 499.082 445.144" class="cls-322"/><polygon points="499.082 446.296 325.375 552.594 323.493 552.594 499.082 445.144 499.082 446.296" class="cls-323"/><polygon points="499.082 447.448 327.257 552.594 325.375 552.594 499.082 446.296 499.082 447.448" class="cls-324"/><polygon points="499.082 448.599 329.139 552.594 327.257 552.594 499.082 447.448 499.082 448.599" class="cls-325"/><polygon points="499.082 449.751 331.021 552.594 329.139 552.594 499.082 448.599 499.082 449.751" class="cls-326"/><polygon points="499.082 450.902 332.903 552.594 331.021 552.594 499.082 449.751 499.082 450.902" class="cls-327"/><polygon points="499.082 452.054 334.785 552.594 332.903 552.594 499.082 450.902 499.082 452.054" class="cls-328"/><polygon points="499.082 453.206 336.667 552.594 334.785 552.594 499.082 452.054 499.082 453.206" class="cls-329"/><polygon points="499.082 454.357 338.548 552.594 336.667 552.594 499.082 453.206 499.082 454.357" class="cls-330"/><polygon points="499.082 455.509 340.43 552.594 338.548 552.594 499.082 454.357 499.082 455.509" class="cls-331"/><polygon points="499.082 456.661 342.312 552.594 340.43 552.594 499.082 455.509 499.082 456.661" class="cls-332"/><polygon points="499.082 457.812 344.194 552.594 342.312 552.594 499.082 456.661 499.082 457.812" class="cls-333"/><polygon points="499.082 458.964 346.076 552.594 344.194 552.594 499.082 457.812 499.082 458.964" class="cls-334"/><polygon points="499.082 460.115 347.958 552.594 346.076 552.594 499.082 458.964 499.082 460.115" class="cls-335"/><polygon points="499.082 461.267 349.84 552.594 347.958 552.594 499.082 460.115 499.082 461.267" class="cls-336"/><polygon points="499.082 462.419 351.722 552.594 349.84 552.594 499.082 461.267 499.082 462.419" class="cls-337"/><polygon points="499.082 463.57 353.604 552.594 351.722 552.594 499.082 462.419 499.082 463.57" class="cls-338"/><polygon points="499.082 464.722 355.486 552.594 353.604 552.594 499.082 463.57 499.082 464.722" class="cls-339"/><polygon points="499.082 465.873 357.367 552.594 355.486 552.594 499.082 464.722 499.082 465.873" class="cls-340"/><polygon points="499.082 467.025 359.249 552.594 357.367 552.594 499.082 465.873 499.082 467.025" class="cls-341"/><polygon points="499.082 468.177 361.131 552.594 359.249 552.594 499.082 467.025 499.082 468.177" class="cls-342"/><polygon points="499.082 469.328 363.013 552.594 361.131 552.594 499.082 468.177 499.082 469.328" class="cls-343"/><polygon points="499.082 470.48 364.895 552.594 363.013 552.594 499.082 469.328 499.082 470.48" class="cls-344"/><polygon points="499.082 471.632 366.777 552.594 364.895 552.594 499.082 470.48 499.082 471.632" class="cls-345"/><polygon points="499.082 472.783 368.659 552.594 366.777 552.594 499.082 471.632 499.082 472.783" class="cls-346"/><polygon points="499.082 473.935 370.541 552.594 368.659 552.594 499.082 472.783 499.082 473.935" class="cls-347"/><polygon points="499.082 475.086 372.423 552.594 370.541 552.594 499.082 473.935 499.082 475.086" class="cls-348"/><polygon points="499.082 476.238 374.305 552.594 372.423 552.594 499.082 475.086 499.082 476.238" class="cls-349"/><polygon points="499.082 477.39 376.187 552.594 374.305 552.594 499.082 476.238 499.082 477.39" class="cls-350"/><polygon points="499.082 478.541 378.068 552.594 376.187 552.594 499.082 477.39 499.082 478.541" class="cls-351"/><polygon points="499.082 479.693 379.95 552.594 378.068 552.594 499.082 478.541 499.082 479.693" class="cls-352"/><polygon points="499.082 480.844 381.832 552.594 379.95 552.594 499.082 479.693 499.082 480.844" class="cls-353"/><polygon points="499.082 481.996 383.714 552.594 381.832 552.594 499.082 480.844 499.082 481.996" class="cls-354"/><polygon points="499.082 483.148 385.596 552.594 383.714 552.594 499.082 481.996 499.082 483.148" class="cls-355"/><polygon points="499.082 484.299 387.478 552.594 385.596 552.594 499.082 483.148 499.082 484.299" class="cls-356"/><polygon points="499.082 485.451 389.36 552.594 387.478 552.594 499.082 484.299 499.082 485.451" class="cls-357"/><polygon points="499.082 486.603 391.242 552.594 389.36 552.594 499.082 485.451 499.082 486.603" class="cls-358"/><polygon points="499.082 487.754 393.124 552.594 391.242 552.594 499.082 486.603 499.082 487.754" class="cls-359"/><polygon points="499.082 488.906 395.006 552.594 393.124 552.594 499.082 487.754 499.082 488.906" class="cls-360"/><polygon points="499.082 490.057 396.888 552.594 395.006 552.594 499.082 488.906 499.082 490.057" class="cls-361"/><polygon points="499.082 491.209 398.769 552.594 396.888 552.594 499.082 490.057 499.082 491.209" class="cls-362"/><polygon points="499.082 492.361 400.651 552.594 398.769 552.594 499.082 491.209 499.082 492.361" class="cls-363"/><polygon points="499.082 493.512 402.533 552.594 400.651 552.594 499.082 492.361 499.082 493.512" class="cls-364"/><polygon points="499.082 494.664 404.415 552.594 402.533 552.594 499.082 493.512 499.082 494.664" class="cls-365"/><polygon points="499.082 495.815 406.297 552.594 404.415 552.594 499.082 494.664 499.082 495.815" class="cls-366"/><polygon points="499.082 496.967 408.179 552.594 406.297 552.594 499.082 495.815 499.082 496.967" class="cls-367"/><polygon points="499.082 498.119 410.061 552.594 408.179 552.594 499.082 496.967 499.082 498.119" class="cls-368"/><polygon points="499.082 499.27 411.943 552.594 410.061 552.594 499.082 498.119 499.082 499.27" class="cls-369"/><polygon points="499.082 500.422 413.825 552.594 411.943 552.594 499.082 499.27 499.082 500.422" class="cls-370"/><polygon points="499.082 501.574 415.707 552.594 413.825 552.594 499.082 500.422 499.082 501.574" class="cls-371"/><polygon points="499.082 502.725 417.589 552.594 415.707 552.594 499.082 501.574 499.082 502.725" class="cls-372"/><polygon points="499.082 503.877 419.47 552.594 417.589 552.594 499.082 502.725 499.082 503.877" class="cls-373"/><polygon points="499.082 505.028 421.352 552.594 419.47 552.594 499.082 503.877 499.082 505.028" class="cls-374"/><polygon points="499.082 506.18 423.234 552.594 421.352 552.594 499.082 505.028 499.082 506.18" class="cls-375"/><polygon points="499.082 507.332 425.116 552.594 423.234 552.594 499.082 506.18 499.082 507.332" class="cls-376"/><polygon points="499.082 508.483 426.998 552.594 425.116 552.594 499.082 507.332 499.082 508.483" class="cls-377"/><polygon points="499.082 509.635 428.88 552.594 426.998 552.594 499.082 508.483 499.082 509.635" class="cls-378"/><polygon points="499.082 510.786 430.762 552.594 428.88 552.594 499.082 509.635 499.082 510.786" class="cls-189"/><polygon points="430.762 552.594 499.082 510.786 499.082 552.594 430.762 552.594" class="cls-189"/></g><polygon points="480.587 223.592 480.587 226.254 490.893 232.204 320.481 331.237 148.954 232.206 159.982 225.797 159.982 223.118 144.348 232.203 320.496 333.902 495.499 232.202 480.587 223.592" class="cls-88"/><polygon points="320.499 336.17 140.434 232.209 161.944 219.708 161.944 226.927 152.869 232.2 320.478 328.969 486.979 232.21 478.625 227.387 478.625 220.193 499.413 232.196 320.499 336.17" class="cls-88"/><circle cx="174.377" cy="278.583" r="2.115" class="cls-379"/><circle cx="160.801" cy="293.483" r="1.496" class="cls-379"/><circle cx="295.762" cy="515.632" r="2.745" class="cls-190"/><circle cx="186.242" cy="459.679" r="1.495" class="cls-190"/><circle cx="155.441" cy="439.236" r="2.17" class="cls-190"/><circle cx="276.254" cy="462.096" r="2.417" class="cls-190"/><circle cx="305.227" cy="450.409" r="1.589" class="cls-190"/><circle cx="268.083" cy="397.565" r="1.689" class="cls-190"/><circle cx="306.839" cy="366.094" r="1.612" class="cls-190"/><circle cx="258.78" cy="341.25" r="3.55" class="cls-190"/><circle cx="288.963" cy="328.358" r="1.16" class="cls-190"/><circle cx="250.072" cy="353.297" r="1.539" class="cls-190"/><circle cx="203.061" cy="359.225" r="1.513" class="cls-190"/><circle cx="217.239" cy="292.893" r="1.556" class="cls-190"/></svg>