<svg xmlns="http://www.w3.org/2000/svg" xmlns:xlink="http://www.w3.org/1999/xlink" id="Layer_1" width="800" height="800" x="0" y="0" enable-background="new 0 0 800 800" version="1.1" viewBox="0 0 800 800" xml:space="preserve"><metadata><?xpacket begin="﻿" id="W5M0MpCehiHzreSzNTczkc9d"?><?xpacket end="w"?></metadata><switch><g><g><g><path fill="none" d="M-163.068,891.598c0-297.004,0-594.009,0-891.013c389.77,0,779.54,0,1169.309,0 c0,297.004,0,594.009,0,891.013C616.472,891.598,226.702,891.598-163.068,891.598z M593.778,246.099 C561.15,143.345,457.961,79.739,349.998,99.561C248.906,118.121,172.913,207.236,174.98,313.896 c2.032,104.841,80.331,193.155,185.274,207.335c99.152,13.4,180.018-42.766,213.547-104.205c-9.137,0-18.274,0-27.337,0 c-56.263,80.428-156.674,101.871-236.735,65.385c-82.537-37.613-126.757-127.561-106.204-216.344 c19.529-84.355,97.968-150.653,194.68-146.287c88.815,4.01,150.879,66.823,170.367,126.317c-31.388,0-62.74,0-94.043,0 c-39.285-51.376-112.28-56.508-158.019-14.032c-44.047,40.906-45.854,110.081-2.595,153.052 c21.673,21.53,48.184,32.002,78.694,30.944c33.841-1.174,61.034-15.971,82.017-42.454c52.22,0,104.436,0,156.612,0 c7.441,14.528,21.183,17.456,30.87,14.829c11.187-3.035,19.262-13.098,19.574-24.495c0.32-11.706-7.083-22.256-18.174-25.837 c-5.452-1.76-10.936-1.758-16.359,0.087c-7.828,2.663-13.091,8.128-16.327,15.493c-95.721,0-191.197,0-286.579,0 c-9.203-9.272-16.727-24.861-16.594-34.405c74.516,0,149.033,0,223.532,0c8.413,13.969,18.78,19.266,31.271,15.999 c11.32-2.96,19.457-13.141,19.723-24.675c0.268-11.691-7.195-22.262-18.314-25.729c-13.238-4.128-26.347,2.238-32.229,14.423 c-74.621,0-149.242,0-224.099,0c2.097-13.019,7.789-24,16.597-33.212c96.086,0,191.848,0,287.549,0 c6.477,13.796,19.582,17.998,30.268,15.584c11.287-2.55,19.888-12.895,20.312-24.515c0.44-12.047-7.258-22.825-18.824-26.188 c-14.063-4.087-26.487,3.368-31.956,15.233c-11.797,0-23.676,0.002-35.554-0.004 C595.256,246.196,594.586,246.137,593.778,246.099z M460.702,649.285c-13.178,14.016-32.361,13.166-43.307,7.871 c-10.593-5.125-18.198-16.789-17.334-26.855c24.082,0,48.191,0,72.612,0c0-2.119,0.058-3.959-0.008-5.797 c-1.337-37.396-37.656-51.049-63.37-36.914c-13.654,7.504-19.891,19.887-21.389,35.09c-1.857,18.871,8.048,36.992,24.931,44.289 c13.705,5.922,27.621,5.855,41.366-0.084c5.129-2.217,9.511-5.553,13.075-10.076 C465.079,654.291,462.975,651.885,460.702,649.285z M328.054,670.312c0.107-0.58,0.204-0.861,0.204-1.143 c0.009-17.539,0.182-35.08-0.054-52.615c-0.138-10.279-3.195-19.6-11.435-26.479c-8.138-6.793-17.821-8.426-27.996-7.715 c-11.502,0.803-21.299,5.141-28.256,14.775c-0.188,0.26-0.496,0.434-1.14,0.979c0-5.326,0-10.16,0-15.09 c-3.816,0-7.381,0-11.023,0c0,29.18,0,58.227,0,87.252c3.916,0,7.58,0,11.516,0c0-1.209,0-2.264,0-3.316 c0-14.324-0.067-28.646,0.017-42.969c0.108-18.293,10.479-29.713,28.014-31.023c16.855-1.262,27.773,7.873,28.351,24.729 c0.561,16.35,0.209,32.73,0.257,49.098c0.003,1.131,0,2.264,0,3.518C320.563,670.312,324.233,670.312,328.054,670.312z M612.22,590.383c-1.243-0.713-2.21-1.344-3.238-1.848c-10.958-5.369-22.55-7.117-34.626-5.93 c-5.771,0.566-11.32,1.979-16.275,5.115c-8.337,5.279-12.247,12.795-11.146,22.721c1.106,9.979,7.547,15.27,16.461,17.898 c6.14,1.809,12.531,2.742,18.743,4.332c5.242,1.342,10.715,2.404,15.5,4.773c7.165,3.545,7.802,13.252,1.55,18.32 c-2.048,1.66-4.645,2.959-7.198,3.621c-9.151,2.373-18.398,2.047-27.352-0.822c-5.475-1.754-10.642-4.465-16.105-6.814 c-1.468,2.576-3.146,5.521-4.955,8.699c1.516,1.041,2.874,2.145,4.381,2.98c11.878,6.582,24.659,8.646,38.063,7.443 c7.173-0.645,14.009-2.357,19.953-6.662c7.449-5.393,10.116-12.842,8.929-21.742c-1.191-8.934-7.124-13.818-15.147-16.314 c-5.643-1.756-11.511-2.783-17.275-4.148c-4.819-1.141-9.725-2.02-14.424-3.531c-4.262-1.371-7.931-3.855-9.064-8.676 c-1.498-6.373,1.686-12.186,8.245-14.967c5.8-2.461,11.924-2.602,18.084-2.221c7.805,0.482,15.015,2.852,21.699,7.281 C608.765,596.701,610.386,593.736,612.22,590.383z M494.581,563.941c0,6.346,0,12.527,0,19.031c-5.381,0-10.479,0-15.49,0 c0,3.496,0,6.656,0,10.051c5.23,0,10.254,0,15.516,0c0,1.295,0,2.346,0,3.396c0,16.846-0.048,33.691,0.018,50.535 c0.044,11.258,5.358,19.34,14.688,22.564c6.046,2.09,12.214,2.191,18.415,0.811c4.013-0.895,7.726-2.436,10.818-5.354 c-1.398-2.855-2.712-5.535-3.967-8.096c-0.386,0-0.493-0.033-0.554,0.006c-0.492,0.312-0.961,0.664-1.463,0.957 c-6.19,3.607-12.737,4.586-19.21,1.299c-6.124-3.111-6.974-9.066-6.95-15.287c0.063-15.871,0.021-31.742,0.021-47.613 c0-1.035,0-2.07,0-3.371c8.989,0,17.609,0,26.314,0c0-3.447,0-6.621,0-10.035c-8.786,0-17.416,0-26.337,0 c0-6.414,0-12.592,0-18.895C502.359,563.941,498.616,563.941,494.581,563.941z M356.271,547.205c0,41.111,0,82.033,0,123.057 c3.912,0,7.657,0,11.502,0c0-41.088,0-82.008,0-123.057C363.913,547.205,360.239,547.205,356.271,547.205z M219.151,670.299 c0-29.305,0-58.273,0-87.191c-3.949,0-7.69,0-11.345,0c0,29.176,0,58.145,0,87.191 C211.674,670.299,215.337,670.299,219.151,670.299z M213.704,563.824c4.963-0.061,8.646-3.805,8.565-8.705 c-0.074-4.523-3.84-8.08-8.57-8.094c-4.998-0.014-8.743,3.693-8.654,8.568C205.131,560.385,208.813,563.883,213.704,563.824z"/><path fill="#029CDB" fill-rule="evenodd" d="M593.778,246.099c0.808,0.038,1.478,0.098,2.147,0.098 c11.878,0.006,23.757,0.004,35.554,0.004c5.469-11.865,17.893-19.32,31.956-15.233c11.566,3.362,19.265,14.141,18.824,26.188 c-0.424,11.62-9.024,21.965-20.312,24.515c-10.686,2.414-23.791-1.788-30.268-15.584c-95.701,0-191.463,0-287.549,0 c-8.808,9.212-14.5,20.193-16.597,33.212c74.856,0,149.478,0,224.099-0.002c5.882-12.183,18.99-18.549,32.229-14.421 c11.119,3.467,18.582,14.037,18.314,25.729c-0.266,11.534-8.402,21.715-19.723,24.675c-12.49,3.267-22.857-2.03-31.271-15.999 c-74.499,0-149.017,0-223.532,0c-0.133,9.544,7.391,25.133,16.594,34.405c95.382,0,190.858,0,286.579,0 c3.236-7.365,8.499-12.83,16.327-15.493c5.424-1.845,10.907-1.847,16.359-0.087c11.091,3.581,18.494,14.131,18.174,25.837 c-0.312,11.396-8.388,21.459-19.574,24.495c-9.688,2.627-23.429-0.301-30.87-14.829c-52.177,0-104.393,0-156.612,0 c-20.982,26.483-48.176,41.28-82.017,42.454c-30.511,1.059-57.021-9.414-78.694-30.944 c-43.26-42.971-41.452-112.146,2.595-153.052c45.738-42.476,118.733-37.344,158.019,14.032c31.303,0,62.655,0,94.043,0 c-19.488-59.494-81.552-122.307-170.367-126.317c-96.712-4.366-175.151,61.931-194.68,146.287 c-20.554,88.783,23.667,178.73,106.204,216.344c80.062,36.486,180.473,15.043,236.735-65.385c9.062,0,18.2,0,27.338,0 c-33.53,61.439-114.396,117.605-213.548,104.205c-104.943-14.18-183.242-102.494-185.274-207.335 c-2.067-106.659,73.926-195.774,175.018-214.335C457.961,79.739,561.15,143.345,593.778,246.099z M672.941,362.957 c-0.062-9.654-7.865-17.387-17.529-17.371c-9.775,0.016-17.562,7.927-17.457,17.735c0.104,9.595,8.052,17.342,17.676,17.229 C665.291,380.435,673.003,372.598,672.941,362.957z M673.526,256.11c0.05-9.607-7.751-17.471-17.382-17.518 c-9.642-0.047-17.495,7.679-17.596,17.311c-0.102,9.619,7.647,17.554,17.245,17.661 C665.594,273.673,673.475,265.916,673.526,256.11z M575.943,292.38c-9.633-0.003-17.478,7.801-17.5,17.408 c-0.021,9.665,7.703,17.49,17.339,17.563c9.788,0.075,17.631-7.727,17.644-17.548 C593.438,300.219,585.577,292.385,575.943,292.38z" clip-rule="evenodd"/><path fill="#029CDB" fill-rule="evenodd" d="M460.702,649.285c2.272,2.6,4.377,5.006,6.577,7.523 c-3.564,4.523-7.946,7.859-13.075,10.076c-13.745,5.939-27.661,6.006-41.366,0.084c-16.883-7.297-26.788-25.418-24.931-44.289 c1.498-15.203,7.734-27.586,21.389-35.09c25.714-14.135,62.033-0.482,63.37,36.914c0.065,1.838,0.008,3.678,0.008,5.797 c-24.421,0-48.53,0-72.612,0c-0.864,10.066,6.741,21.73,17.334,26.855C428.341,662.451,447.524,663.301,460.702,649.285z M399.766,621.309c20.638,0,41.053,0,61.47,0c-0.262-15.498-13.532-28.457-29.403-28.889 C414.327,591.943,401.201,603.709,399.766,621.309z" clip-rule="evenodd"/><path fill="#059DDC" fill-rule="evenodd" d="M328.054,670.312c-3.82,0-7.49,0-11.546,0 c0-1.254,0.003-2.387,0-3.518c-0.048-16.367,0.304-32.748-0.257-49.098c-0.577-16.855-11.495-25.99-28.351-24.729 c-17.534,1.311-27.905,12.73-28.014,31.023c-0.084,14.322-0.017,28.645-0.017,42.969c0,1.053,0,2.107,0,3.316 c-3.936,0-7.6,0-11.516,0c0-29.025,0-58.072,0-87.252c3.643,0,7.207,0,11.023,0c0,4.93,0,9.764,0,15.09 c0.644-0.545,0.952-0.719,1.14-0.979c6.957-9.635,16.754-13.973,28.256-14.775c10.175-0.711,19.858,0.922,27.996,7.715 c8.239,6.879,11.297,16.199,11.435,26.479c0.235,17.535,0.062,35.076,0.054,52.615 C328.258,669.451,328.161,669.732,328.054,670.312z" clip-rule="evenodd"/><path fill="#039CDB" fill-rule="evenodd" d="M612.22,590.383c-1.834,3.354-3.455,6.318-5.199,9.51 c-6.685-4.43-13.895-6.799-21.699-7.281c-6.16-0.381-12.284-0.24-18.084,2.221c-6.56,2.781-9.743,8.594-8.245,14.967 c1.134,4.82,4.803,7.305,9.064,8.676c4.699,1.512,9.604,2.391,14.424,3.531c5.765,1.365,11.633,2.393,17.275,4.148 c8.023,2.496,13.956,7.381,15.147,16.314c1.188,8.9-1.479,16.35-8.929,21.742c-5.944,4.305-12.78,6.018-19.953,6.662 c-13.404,1.203-26.186-0.861-38.063-7.443c-1.507-0.836-2.865-1.939-4.381-2.98c1.81-3.178,3.487-6.123,4.955-8.699 c5.464,2.35,10.631,5.061,16.105,6.814c8.953,2.869,18.2,3.195,27.352,0.822c2.554-0.662,5.15-1.961,7.198-3.621 c6.252-5.068,5.615-14.775-1.55-18.32c-4.785-2.369-10.258-3.432-15.5-4.773c-6.212-1.59-12.604-2.523-18.743-4.332 c-8.914-2.629-15.354-7.92-16.461-17.898c-1.101-9.926,2.81-17.441,11.146-22.721c4.955-3.137,10.505-4.549,16.275-5.115 c12.076-1.188,23.668,0.561,34.626,5.93C610.01,589.039,610.977,589.67,612.22,590.383z" clip-rule="evenodd"/><path fill="#019CDB" fill-rule="evenodd" d="M494.581,563.941c4.035,0,7.778,0,11.819,0 c0,6.303,0,12.48,0,18.895c8.921,0,17.551,0,26.337,0c0,3.414,0,6.588,0,10.035c-8.705,0-17.325,0-26.314,0 c0,1.301,0,2.336,0,3.371c0,15.871,0.043,31.742-0.021,47.613c-0.023,6.221,0.826,12.176,6.95,15.287 c6.473,3.287,13.02,2.309,19.21-1.299c0.502-0.293,0.971-0.645,1.463-0.957c0.061-0.039,0.168-0.006,0.554-0.006 c1.255,2.561,2.568,5.24,3.967,8.096c-3.093,2.918-6.806,4.459-10.818,5.354c-6.201,1.381-12.369,1.279-18.415-0.811 c-9.33-3.225-14.645-11.307-14.688-22.564c-0.065-16.844-0.018-33.689-0.018-50.535c0-1.051,0-2.102,0-3.396 c-5.262,0-10.285,0-15.516,0c0-3.395,0-6.555,0-10.051c5.011,0,10.109,0,15.49,0 C494.581,576.469,494.581,570.287,494.581,563.941z" clip-rule="evenodd"/><path fill="#009CDB" fill-rule="evenodd" d="M356.271,547.205c3.969,0,7.643,0,11.502,0 c0,41.049,0,81.969,0,123.057c-3.845,0-7.59,0-11.502,0C356.271,629.238,356.271,588.316,356.271,547.205z" clip-rule="evenodd"/><path fill="#019CDB" fill-rule="evenodd" d="M219.151,670.299c-3.814,0-7.478,0-11.345,0 c0-29.047,0-58.016,0-87.191c3.655,0,7.396,0,11.345,0C219.151,612.025,219.151,640.994,219.151,670.299z" clip-rule="evenodd"/><path fill="#039CDB" fill-rule="evenodd" d="M213.704,563.824c-4.89,0.059-8.572-3.439-8.659-8.23 c-0.089-4.875,3.656-8.582,8.654-8.568c4.729,0.014,8.496,3.57,8.57,8.094C222.35,560.02,218.667,563.764,213.704,563.824z" clip-rule="evenodd"/><path fill="none" fill-rule="evenodd" d="M672.941,362.957c0.062,9.641-7.65,17.478-17.311,17.593 c-9.624,0.113-17.572-7.634-17.676-17.229c-0.104-9.809,7.682-17.72,17.457-17.735 C665.076,345.57,672.879,353.303,672.941,362.957z" clip-rule="evenodd"/><path fill="none" fill-rule="evenodd" d="M673.526,256.11c-0.052,9.806-7.933,17.562-17.732,17.454 c-9.598-0.107-17.347-8.042-17.245-17.661c0.101-9.632,7.954-17.357,17.596-17.311 C665.775,238.64,673.576,246.503,673.526,256.11z" clip-rule="evenodd"/><path fill="none" fill-rule="evenodd" d="M575.943,292.38c9.634,0.005,17.494,7.839,17.482,17.424 c-0.013,9.821-7.855,17.623-17.644,17.548c-9.636-0.073-17.36-7.898-17.339-17.563 C558.466,300.181,566.311,292.377,575.943,292.38z" clip-rule="evenodd"/><path fill="none" fill-rule="evenodd" d="M399.766,621.309c1.436-17.6,14.562-29.365,32.066-28.889 c15.871,0.432,29.142,13.391,29.403,28.889C440.818,621.309,420.403,621.309,399.766,621.309z" clip-rule="evenodd"/></g></g></g></switch></svg>