<svg xmlns="http://www.w3.org/2000/svg" xmlns:svg="http://www.w3.org/2000/svg" id="svg2" width="433.4" height="111.68" version="1.1" viewBox="0 0 433.4 111.68" xml:space="preserve"><metadata id="metadata8"/><defs id="defs6"><clipPath id="clipPath28" clipPathUnits="userSpaceOnUse"><path id="path26" d="M 0,0 H 3250 V 838 H 0 Z"/></clipPath><clipPath id="clipPath34" clipPathUnits="userSpaceOnUse"><path id="path32" d="m 3153.93,613.926 c 17.36,18.066 27.1,44.461 27.1,68.769 0,25.012 -9.74,49.328 -27.1,65.996 -17.37,16.672 -42.38,26.399 -65.99,26.399 -25.7,0 -50.72,-11.813 -65.99,-26.399 -15.28,-15.281 -27.09,-39.597 -27.09,-68.082 0,-25.703 9.71,-51.398 27.09,-68.761 15.27,-14.586 39.59,-25.7 65.3,-25.7 23.62,0 48.62,9.028 66.68,27.778 z m -111.26,-160.297 58.46,74.859 c -9.02,-2.086 -16.67,-2.781 -25,-2.781 -54.88,0 -89.61,24.313 -108.36,43.066 -23.62,23.622 -42.38,57.657 -42.38,105.594 0,46.535 18.07,87.524 45.84,116 29.18,29.871 68.09,47.242 119.48,47.242 63.22,0 100.03,-25.703 119.49,-45.855 19.44,-20.141 40.29,-53.488 40.29,-104.887 0,-33.347 -7.65,-59.742 -22.23,-88.219 -17.36,-34.73 -35.44,-55.57 -56.27,-82.668 l -128.5,-165.324 z"/></clipPath><linearGradient id="linearGradient42" x1="0" x2="1" y1="0" y2="0" gradientTransform="matrix(325.092,0,0,-325.092,2925.4,594.133)" gradientUnits="userSpaceOnUse" spreadMethod="pad"><stop id="stop36" offset="0" style="stop-opacity:1;stop-color:#f7982e"/><stop id="stop38" offset=".835" style="stop-opacity:1;stop-color:#dc412e"/><stop id="stop40" offset="1" style="stop-opacity:1;stop-color:#dc412e"/></linearGradient></defs><g id="g10" transform="matrix(1.3333333,0,0,-1.3333333,0,111.68)"><g id="g12" transform="scale(0.1)"><path id="path14" d="M 429.285,2.16797 143.332,276.535 109.313,306.223 V 10.1367 H 0 V 539.32 H 4.34375 L 289.566,264.953 322.867,235.273 V 531.359 H 432.902 V 2.16797 h -3.617" style="fill:#231f20;fill-opacity:1;fill-rule:nonzero;stroke:none"/><path id="path16" d="m 1047.88,102.07 c 94.11,0 160.71,75.293 160.71,168.684 0,92.656 -66.6,168.668 -160.71,168.668 -94.114,0 -160.708,-76.012 -160.708,-168.668 0,-93.391 66.594,-168.684 160.708,-168.684 z m 0,439.426 c 157.09,0 272.91,-120.172 272.91,-270.742 C 1320.79,118.723 1205.69,0 1047.88,0 890.066,0 774.965,118.723 774.965,270.754 c 0,149.844 115.101,270.742 272.915,270.742" style="fill:#231f20;fill-opacity:1;fill-rule:nonzero;stroke:none"/><path id="path18" d="m 1788.46,99.1797 h 82.53 c 44.16,0 78.9,24.6093 78.9,70.2153 0,45.605 -31.85,69.503 -71.67,69.503 h -89.76 z m 66.6,215.0003 c 15.21,0 28.96,0.722 41.99,4.347 20.99,7.957 34.75,28.231 34.75,57.188 0,43.437 -29.68,66.601 -73.85,66.601 h -69.49 V 314.18 Z m 209.21,-152.02 c 0,-99.9022 -81.07,-152.0233 -198.35,-152.0233 H 1682.04 V 531.359 h 168.67 c 110.77,0 194.02,-48.504 194.02,-146.23 0,-49.231 -29.68,-85.422 -66.6,-101.348 46.32,-15.207 86.14,-62.258 86.14,-121.621" style="fill:#231f20;fill-opacity:1;fill-rule:nonzero;stroke:none"/><path id="path20" d="M 2429.12,10.1367 V 531.359 H 2540.6 V 103.527 h 200.52 V 10.1367 h -312" style="fill:#231f20;fill-opacity:1;fill-rule:nonzero;stroke:none"/><g id="g22"><g id="g24" clip-path="url(#clipPath28)"><g id="g30" clip-path="url(#clipPath34)"><path id="path44" d="m 3043,350 v 62 h -1 v 43 h 1 v 1 h 1 v 1 h 1 v 1 h 1 v 2 h 1 v 1 h 1 v 1 h 1 v 2 h 1 v 1 h 1 v 1 h 1 v 1 h 1 v 2 h 1 v 1 h 1 v 1 h 1 v 1 h 1 v 2 h 1 v 1 h 1 v 1 h 1 v 2 h 1 v 1 h 1 v 1 h 1 v 1 h 1 v 2 h 1 v 1 h 1 v 1 h 1 v 2 h 1 v 1 h 1 v 1 h 1 v 1 h 1 v 2 h 1 v 1 h 1 v 1 h 1 v 2 h 1 v 1 h 1 v 1 h 1 v 1 h 1 v 2 h 1 v 1 h 1 v 1 h 1 v 1 h 1 v 2 h 1 v 1 h 1 v 1 h 1 v 2 h 1 v 1 h 1 v 1 h 1 v 1 h 1 v 2 h 1 v 1 h 1 v 1 h 1 v 2 h 1 v 1 h 1 v 1 h 1 v 1 h 1 v 2 h 1 v 1 h 1 v 1 h 1 v 1 h -6 v -1 h -9 v -1 h -17 v 1 h -12 v 1 h -6 v 1 h -6 v 1 h -6 v 1 h -3 v 1 h -3 v 1 h -4 v 1 h -3 v 1 h -3 v 1 h -3 v 1 h -2 v 1 h -3 v 1 h -2 v 1 h -3 v 1 h -2 v 1 h -1 v 1 h -2 v 1 h -2 v 1 h -2 v 1 h -2 v 1 h -2 v 1 h -1 v 1 h -2 v 1 h -1 v 1 h -2 v 1 h -1 v 1 h -2 v 1 h -1 v 1 h -2 v 1 h -1 v 1 h -1 v 1 h -1 v 1 h -2 v 1 h -1 v 1 h -1 v 1 h -1 v 1 h -2 v 1 h -1 v 1 h -1 v 1 h -1 v 1 h -1 v 1 h -1 v 1 h -1 v 1 h -1 v 1 h -1 v 1 h -1 v 1 h -1 v 1 h -1 v 1 h -1 v 2 h -1 v 1 h -1 v 1 h -1 v 1 h -1 v 1 h -1 v 2 h -1 v 1 h -1 v 1 h -1 v 2 h -1 v 1 h -1 v 1 h -1 v 2 h -1 v 1 h -1 v 2 h -1 v 2 h -1 v 1 h -1 v 2 h -1 v 1 h -1 v 2 h -1 v 2 h -1 v 2 h -1 v 2 h -1 v 2 h -1 v 2 h -1 v 3 h -1 v 3 h -1 v 2 h -1 v 3 h -1 v 2 h -1 v 4 h -1 v 4 h -1 v 3 h -1 v 4 h -1 v 6 h -1 v 7 h -1 v 8 h -1 v 29 h 1 v 8 h 1 v 7 h 1 v 6 h 1 v 4 h 1 v 4 h 1 v 4 h 1 v 4 h 1 v 3 h 1 v 2 h 1 v 3 h 1 v 3 h 1 v 3 h 1 v 2 h 1 v 2 h 1 v 2 h 1 v 2 h 1 v 3 h 1 v 2 h 1 v 2 h 1 v 1 h 1 v 2 h 1 v 2 h 1 v 2 h 1 v 1 h 1 v 2 h 1 v 2 h 1 v 1 h 1 v 2 h 1 v 1 h 1 v 1 h 1 v 2 h 1 v 1 h 1 v 1 h 1 v 2 h 1 v 1 h 1 v 1 h 1 v 2 h 1 v 1 h 1 v 1 h 1 v 1 h 1 v 1 h 1 v 1 h 1 v 2 h 1 v 1 h 1 v 1 h 1 v 1 h 1 v 1 h 1 v 1 h 1 v 1 h 2 v 1 h 1 v 1 h 1 v 1 h 1 v 1 h 1 v 1 h 1 v 1 h 1 v 1 h 1 v 1 h 2 v 1 h 1 v 1 h 1 v 1 h 2 v 1 h 1 v 1 h 1 v 1 h 2 v 1 h 1 v 1 h 2 v 1 h 1 v 1 h 2 v 1 h 1 v 1 h 2 v 1 h 2 v 1 h 1 v 1 h 2 v 1 h 2 v 1 h 2 v 1 h 2 v 1 h 2 v 1 h 2 v 1 h 3 v 1 h 2 v 1 h 2 v 1 h 3 v 1 h 3 v 1 h 3 v 1 h 3 v 1 h 3 v 1 h 5 v 1 h 4 v 1 h 4 v 1 h 6 v 1 h 8 v 1 h 9 v 1 h 31 v -1 h 11 v -1 h 6 v -1 h 6 v -1 h 6 v -1 h 3 v -1 h 4 v -1 h 4 v -1 h 4 v -1 h 3 v -1 h 2 v -1 h 3 v -1 h 2 v -1 h 3 v -1 h 2 v -1 h 3 v -1 h 2 v -1 h 2 v -1 h 2 v -1 h 1 v -1 h 2 v -1 h 2 v -1 h 2 v -1 h 2 v -1 h 1 v -1 h 2 v -1 h 1 v -1 h 2 v -1 h 1 v -1 h 2 v -1 h 1 v -1 h 1 v -1 h 2 v -1 h 1 v -1 h 1 v -1 h 1 v -1 h 2 v -1 h 1 v -1 h 1 v -1 h 1 v -1 h 1 v -1 h 1 v -1 h 1 v -1 h 1 v -1 h 1 v -1 h 1 v -1 h 1 v -1 h 1 v -1 h 1 v -1 h 1 v -1 h 1 v -1 h 1 v -1 h 1 v -1 h 1 v -2 h 1 v -1 h 1 v -1 h 1 v -2 h 1 v -1 h 1 v -1 h 1 v -1 h 1 v -2 h 1 v -1 h 1 v -2 h 1 v -2 h 1 v -1 h 1 v -2 h 1 v -1 h 1 v -2 h 1 v -2 h 1 v -2 h 1 v -2 h 1 v -2 h 1 v -2 h 1 v -2 h 1 v -3 h 1 v -3 h 1 v -2 h 1 v -3 h 1 v -3 h 1 v -3 h 1 v -4 h 1 v -4 h 1 v -4 h 1 v -6 h 1 v -7 h 1 v -47 h -1 v -5 h -1 v -5 h -1 v -6 h -1 v -5 h -1 v -3 h -1 v -3 h -1 v -3 h -1 v -3 h -1 v -3 h -1 v -3 h -1 v -3 h -1 v -3 h -1 v -2 h -1 v -2 h -1 v -3 h -1 v -2 h -1 v -2 h -1 v -2 h -1 v -2 h -1 v -2 h -1 v -2 h -1 v -2 h -1 v -2 h -1 v -2 h -1 v -2 h -1 v -2 h -1 v -2 h -1 v -1 h -1 v -2 h -1 v -2 h -1 v -2 h -1 v -1 h -1 v -2 h -1 v -2 h -1 v -1 h -1 v -2 h -1 v -1 h -1 v -2 h -1 v -1 h -1 v -2 h -1 v -1 h -1 v -2 h -1 v -1 h -1 v -2 h -1 v -1 h -1 v -2 h -1 v -1 h -1 v -2 h -1 v -1 h -1 v -1 h -1 v -2 h -1 v -1 h -1 v -1 h -1 v -2 h -1 v -1 h -1 v -1 h -1 v -2 h -1 v -1 h -1 v -1 h -1 v -2 h -1 v -1 h -1 v -1 h -1 v -1 h -1 v -2 h -1 v -1 h -1 v -1 h -1 v -2 h -1 v -1 h -1 v -1 h -1 v -1 h -1 v -2 h -1 v -1 h -1 v -1 h -1 v -2 h -1 v -1 h -1 v -1 h -1 v -2 h -1 v -1 h -1 v -1 h -1 v -1 h -1 v -2 h -1 v -1 h -1 v -1 h -1 v -2 h -1 v -1 h -1 v -1 h -1 v -1 h -1 v -2 h -1 v -1 h -1 v -1 h -1 v -2 h -1 v -1 h -1 v -1 h -1 v -1 h -1 v -2 h -1 v -1 h -1 v -1 h -1 v -2 h -1 v -1 h -1 v -1 h -1 v -1 h -1 v -2 h -1 v -1 h -1 v -1 h -1 v -2 h -1 v -1 h -1 v -1 h -1 v -1 h -1 v -2 h -1 v -1 h -1 v -1 h -1 v -2 h -1 v -1 h -1 v -1 h -1 v -1 h -1 v -2 h -1 v -1 h -1 v -1 h -1 v -2 h -1 v -1 h -1 v -1 h -1 v -1 h -1 v -2 h -1 v -1 h -1 v -1 h -1 v -2 h -1 v -1 h -1 v -1 h -1 v -1 h -1 v -2 h -1 v -1 h -1 v -1 h -1 v -2 h -1 v -1 h -1 v -1 h -1 v -1 h -1 v -2 h -1 v -1 h -1 v -1 h -1 v -2 h -1 v -1 h -1 v -1 h -1 v -1 h -1 v -2 h -1 v -1 h -1 v -1 h -1 v -2 h -1 v -1 h -1 v -1 h -1 v -1 h -1 v -2 h -1 v -1 h -1 v -1 h -1 v -2 h -1 v -1 h -1 v -1 h -1 v -1 h -1 v -2 h -1 v -1 h -1 v -1 h -1 v -2 h -1 v -1 h -1 v -1 h -1 v -1 h -1 v -2 h -1 v -1 h -1 v -1 h -1 v -2 h -1 v -1 h -1 v -1 h -1 v -1 h -1 v -2 h -1 v -1 h -1 v -1 h -1 v -2 h -1 v -1 h -1 v -1 h -1 v -1 h -1 v -2 h -1 v -1 h -1 v -1 h -1 v -2 h -1 v -1 h -1 v -1 h -1 v -1 h -1 v -2 h -1 v -1 h -1 v -1 h -1 v -2 h -1 v -1 h -1 v -1 h -1 v -1 h -1 v -2 h -1 v -1 h -1 v -1 h -1 v -2 h -1 v -1 h -1 v -1 h -1 v -1 h -1 v -2 h -1 v -1 h -1 v -1 h -1 v -2 h -1 v -1 h -1 v -1 h -1 v -1 z m 34,238 v -1 h 21 v 1 h 7 v 1 h 4 v 1 h 3 v 1 h 3 v 1 h 4 v 1 h 3 v 1 h 2 v 1 h 2 v 1 h 2 v 1 h 2 v 1 h 2 v 1 h 2 v 1 h 2 v 1 h 1 v 1 h 2 v 1 h 1 v 1 h 2 v 1 h 1 v 1 h 1 v 1 h 2 v 1 h 1 v 1 h 1 v 1 h 1 v 1 h 2 v 1 h 1 v 1 h 1 v 1 h 1 v 2 h 1 v 1 h 1 v 1 h 1 v 1 h 1 v 1 h 1 v 2 h 1 v 1 h 1 v 2 h 1 v 1 h 1 v 1 h 1 v 2 h 1 v 1 h 1 v 2 h 1 v 2 h 1 v 2 h 1 v 2 h 1 v 2 h 1 v 2 h 1 v 2 h 1 v 3 h 1 v 3 h 1 v 3 h 1 v 4 h 1 v 3 h 1 v 4 h 1 v 7 h 1 v 7 h 1 v 9 h -1 v 8 h -1 v 7 h -1 v 3 h -1 v 3 h -1 v 4 h -1 v 3 h -1 v 3 h -1 v 2 h -1 v 2 h -1 v 2 h -1 v 2 h -1 v 2 h -1 v 2 h -1 v 2 h -1 v 1 h -1 v 2 h -1 v 1 h -1 v 2 h -1 v 1 h -1 v 1 h -1 v 1 h -1 v 2 h -1 v 1 h -1 v 1 h -1 v 1 h -1 v 1 h -1 v 1 h -1 v 1 h -1 v 1 h -1 v 1 h -1 v 1 h -1 v 1 h -2 v 1 h -1 v 1 h -2 v 1 h -1 v 1 h -1 v 1 h -2 v 1 h -1 v 1 h -2 v 1 h -2 v 1 h -2 v 1 h -2 v 1 h -2 v 1 h -2 v 1 h -2 v 1 h -2 v 1 h -3 v 1 h -4 v 1 h -3 v 1 h -3 v 1 h -4 v 1 h -6 v 1 h -7 v 1 h -8 v -1 h -10 v -1 h -6 v -1 h -3 v -1 h -4 v -1 h -3 v -1 h -3 v -1 h -3 v -1 h -2 v -1 h -2 v -1 h -2 v -1 h -3 v -1 h -2 v -1 h -1 v -1 h -2 v -1 h -2 v -1 h -1 v -1 h -2 v -1 h -1 v -1 h -2 v -1 h -1 v -1 h -1 v -1 h -2 v -1 h -1 v -1 h -1 v -1 h -1 v -1 h -1 v -1 h -1 v -1 h -1 v -1 h -1 v -1 h -1 v -1 h -1 v -1 h -1 v -2 h -1 v -1 h -1 v -1 h -1 v -2 h -1 v -1 h -1 v -1 h -1 v -2 h -1 v -2 h -1 v -2 h -1 v -2 h -1 v -2 h -1 v -2 h -1 v -1 h -1 v -2 h -1 v -3 h -1 v -3 h -1 v -4 h -1 v -3 h -1 v -3 h -1 v -3 h -1 v -7 h -1 v -8 h -1 v -11 h 1 v -8 h 1 v -6 h 1 v -4 h 1 v -3 h 1 v -4 h 1 v -3 h 1 v -4 h 1 v -2 h 1 v -2 h 1 v -2 h 1 v -2 h 1 v -2 h 1 v -1 h 1 v -2 h 1 v -2 h 1 v -2 h 1 v -1 h 1 v -2 h 1 v -1 h 1 v -1 h 1 v -2 h 1 v -1 h 1 v -1 h 1 v -2 h 1 v -1 h 1 v -1 h 1 v -1 h 1 v -1 h 1 v -1 h 1 v -1 h 2 v -1 h 1 v -1 h 2 v -1 h 1 v -1 h 1 v -1 h 2 v -1 h 1 v -1 h 2 v -1 h 2 v -1 h 2 v -1 h 2 v -1 h 1 v -1 h 2 v -1 h 2 v -1 h 2 v -1 h 3 v -1 h 3 v -1 h 3 v -1 h 4 v -1 h 3 v -1 h 4 v -1" style="fill:url(#linearGradient42);fill-opacity:1;fill-rule:nonzero;stroke:none"/></g></g></g></g></g></svg>